<?xml version="1.0" encoding="utf-8"?>
<!-- Generator: Adobe Illustrator 15.0.0, SVG Export Plug-In . SVG Version: 6.00 Build 0)  -->
<!DOCTYPE svg PUBLIC "-//W3C//DTD SVG 1.1//EN" "http://www.w3.org/Graphics/SVG/1.1/DTD/svg11.dtd" [
	<!ENTITY ns_extend "http://ns.adobe.com/Extensibility/1.0/">
	<!ENTITY ns_ai "http://ns.adobe.com/AdobeIllustrator/10.0/">
	<!ENTITY ns_graphs "http://ns.adobe.com/Graphs/1.0/">
	<!ENTITY ns_vars "http://ns.adobe.com/Variables/1.0/">
	<!ENTITY ns_imrep "http://ns.adobe.com/ImageReplacement/1.0/">
	<!ENTITY ns_sfw "http://ns.adobe.com/SaveForWeb/1.0/">
	<!ENTITY ns_custom "http://ns.adobe.com/GenericCustomNamespace/1.0/">
	<!ENTITY ns_adobe_xpath "http://ns.adobe.com/XPath/1.0/">
]>
<svg version="1.1" id="Layer_1" xmlns:x="&ns_extend;" xmlns:i="&ns_ai;" xmlns:graph="&ns_graphs;"
	 xmlns="http://www.w3.org/2000/svg" xmlns:xlink="http://www.w3.org/1999/xlink" x="0px" y="0px" width="48px" height="48px"
	 viewBox="0 0 48 48" enable-background="new 0 0 48 48" xml:space="preserve">
<metadata>
	<sfw  xmlns="&ns_sfw;">
		<slices></slices>
		<sliceSourceBounds  height="28.537" width="28.538" y="382.231" x="290.881" bottomLeftOrigin="true"></sliceSourceBounds>
	</sfw>
</metadata>
<path fill="#FFFFFF" d="M23.65,38.269c-7.869,0-14.27-6.402-14.27-14.269c0-7.867,6.401-14.268,14.27-14.268
	c7.867,0,14.269,6.4,14.269,14.268S31.518,38.269,23.65,38.269z M23.65,11.232c-7.042,0-12.77,5.729-12.77,12.768
	c0,7.041,5.728,12.771,12.77,12.771c7.039,0,12.769-5.729,12.769-12.771C36.417,16.961,30.689,11.232,23.65,11.232z"/>
<path fill="#FFFFFF" d="M23.65,34.382c-5.725,0-10.383-4.658-10.383-10.383c0-5.725,4.658-10.38,10.383-10.38
	c5.726,0,10.38,4.656,10.38,10.381C34.03,29.726,29.374,34.382,23.65,34.382z M23.65,15.119c-4.898,0-8.883,3.984-8.883,8.881
	c0,4.897,3.984,8.883,8.883,8.883c4.896,0,8.881-3.983,8.881-8.883C32.53,19.103,28.546,15.119,23.65,15.119z"/>
<circle fill="#FFFFFF" cx="23.649" cy="24.002" r="4.927"/>
</svg>
