<?xml version="1.0" encoding="utf-8"?>
<!-- Generator: Adobe Illustrator 15.0.0, SVG Export Plug-In . SVG Version: 6.00 Build 0)  -->
<!DOCTYPE svg PUBLIC "-//W3C//DTD SVG 1.1//EN" "http://www.w3.org/Graphics/SVG/1.1/DTD/svg11.dtd" [
	<!ENTITY ns_extend "http://ns.adobe.com/Extensibility/1.0/">
	<!ENTITY ns_ai "http://ns.adobe.com/AdobeIllustrator/10.0/">
	<!ENTITY ns_graphs "http://ns.adobe.com/Graphs/1.0/">
	<!ENTITY ns_vars "http://ns.adobe.com/Variables/1.0/">
	<!ENTITY ns_imrep "http://ns.adobe.com/ImageReplacement/1.0/">
	<!ENTITY ns_sfw "http://ns.adobe.com/SaveForWeb/1.0/">
	<!ENTITY ns_custom "http://ns.adobe.com/GenericCustomNamespace/1.0/">
	<!ENTITY ns_adobe_xpath "http://ns.adobe.com/XPath/1.0/">
]>
<svg version="1.1" id="Layer_1" xmlns:x="&ns_extend;" xmlns:i="&ns_ai;" xmlns:graph="&ns_graphs;"
	 xmlns="http://www.w3.org/2000/svg" xmlns:xlink="http://www.w3.org/1999/xlink" x="0px" y="0px" width="48px" height="48px"
	 viewBox="0 0 48 48" enable-background="new 0 0 48 48" xml:space="preserve">
<metadata>
	<sfw  xmlns="&ns_sfw;">
		<slices></slices>
		<sliceSourceBounds  height="28.535" width="28.537" y="382.486" x="291.231" bottomLeftOrigin="true"></sliceSourceBounds>
	</sfw>
</metadata>
<path fill="#FFFFFF" d="M24,38.014c-7.868,0-14.269-6.4-14.269-14.267c0-7.87,6.401-14.268,14.269-14.268
	c7.869,0,14.268,6.398,14.268,14.268C38.268,31.613,31.869,38.014,24,38.014z M24,10.979c-7.041,0-12.769,5.727-12.769,12.768
	S16.959,36.516,24,36.516c7.041,0,12.768-5.728,12.768-12.769S31.041,10.979,24,10.979z"/>
<path fill="#FFFFFF" d="M32.432,17.221c-1.949-2.518-5.002-4.137-8.433-4.137c-0.891,0-1.755,0.109-2.584,0.316l-0.546,5.92
	L32.432,17.221z"/>
<path fill="#FFFFFF" d="M13.408,22.499c0.48-4.113,3.302-7.512,7.093-8.828l-1.775,11.66L13.408,22.499z"/>
<path fill="#FFFFFF" d="M19.109,33.225c-3.43-1.771-5.773-5.352-5.773-9.477l10.361,4.98L19.109,33.225z"/>
<path fill="#FFFFFF" d="M31.898,30.911c-1.951,2.149-4.768,3.501-7.899,3.501c-1.318,0-2.587-0.242-3.755-0.68l8.727-8.401
	L31.898,30.911z"/>
<path fill="#FFFFFF" d="M33.271,18.475c0.885,1.557,1.392,3.355,1.392,5.273c0,2.244-0.694,4.328-1.878,6.047l-5.861-10.527
	L33.271,18.475z"/>
</svg>
