<?xml version="1.0" encoding="utf-8"?>
<!-- Generator: Adobe Illustrator 15.0.0, SVG Export Plug-In . SVG Version: 6.00 Build 0)  -->
<!DOCTYPE svg PUBLIC "-//W3C//DTD SVG 1.1//EN" "http://www.w3.org/Graphics/SVG/1.1/DTD/svg11.dtd" [
	<!ENTITY ns_extend "http://ns.adobe.com/Extensibility/1.0/">
	<!ENTITY ns_ai "http://ns.adobe.com/AdobeIllustrator/10.0/">
	<!ENTITY ns_graphs "http://ns.adobe.com/Graphs/1.0/">
	<!ENTITY ns_vars "http://ns.adobe.com/Variables/1.0/">
	<!ENTITY ns_imrep "http://ns.adobe.com/ImageReplacement/1.0/">
	<!ENTITY ns_sfw "http://ns.adobe.com/SaveForWeb/1.0/">
	<!ENTITY ns_custom "http://ns.adobe.com/GenericCustomNamespace/1.0/">
	<!ENTITY ns_adobe_xpath "http://ns.adobe.com/XPath/1.0/">
]>
<svg version="1.1" id="Layer_1" xmlns:x="&ns_extend;" xmlns:i="&ns_ai;" xmlns:graph="&ns_graphs;"
	 xmlns="http://www.w3.org/2000/svg" xmlns:xlink="http://www.w3.org/1999/xlink" x="0px" y="0px" width="48px" height="48px"
	 viewBox="0 0 48 48" enable-background="new 0 0 48 48" xml:space="preserve">
<metadata>
	<sfw  xmlns="&ns_sfw;">
		<slices></slices>
		<sliceSourceBounds  height="28.665" width="27.302" y="381.827" x="290.507" bottomLeftOrigin="true"></sliceSourceBounds>
	</sfw>
</metadata>
<path fill="#FFFFFF" d="M31.83,29.735c-1.352,0-2.561,0.604-3.384,1.55l-10.653-5.733c0.108-0.385,0.172-0.789,0.172-1.212
	c0-0.418-0.063-0.824-0.172-1.206l10.653-5.735c0.823,0.949,2.032,1.553,3.384,1.553c2.471,0,4.479-2.006,4.479-4.466
	c0-2.467-2.009-4.476-4.479-4.476c-2.472,0-4.476,2.009-4.476,4.476c0,0.42,0.06,0.825,0.17,1.21L16.864,21.42
	c-0.82-0.943-2.029-1.541-3.381-1.541c-2.466,0-4.474,1.993-4.474,4.461c0,2.474,2.008,4.464,4.475,4.464
	c1.352,0,2.561-0.599,3.385-1.54l10.657,5.727c-0.109,0.387-0.17,0.787-0.17,1.207c0,2.471,2.004,4.478,4.477,4.478
	c2.47,0,4.479-2.007,4.479-4.478C36.31,31.739,34.301,29.735,31.83,29.735z"/>
</svg>
