<?xml version="1.0" encoding="utf-8"?>
<!-- Generator: Adobe Illustrator 15.0.0, SVG Export Plug-In . SVG Version: 6.00 Build 0)  -->
<!DOCTYPE svg PUBLIC "-//W3C//DTD SVG 1.1//EN" "http://www.w3.org/Graphics/SVG/1.1/DTD/svg11.dtd" [
	<!ENTITY ns_extend "http://ns.adobe.com/Extensibility/1.0/">
	<!ENTITY ns_ai "http://ns.adobe.com/AdobeIllustrator/10.0/">
	<!ENTITY ns_graphs "http://ns.adobe.com/Graphs/1.0/">
	<!ENTITY ns_vars "http://ns.adobe.com/Variables/1.0/">
	<!ENTITY ns_imrep "http://ns.adobe.com/ImageReplacement/1.0/">
	<!ENTITY ns_sfw "http://ns.adobe.com/SaveForWeb/1.0/">
	<!ENTITY ns_custom "http://ns.adobe.com/GenericCustomNamespace/1.0/">
	<!ENTITY ns_adobe_xpath "http://ns.adobe.com/XPath/1.0/">
]>
<svg version="1.1" id="Layer_1" xmlns:x="&ns_extend;" xmlns:i="&ns_ai;" xmlns:graph="&ns_graphs;"
	 xmlns="http://www.w3.org/2000/svg" xmlns:xlink="http://www.w3.org/1999/xlink" x="0px" y="0px" width="150px" height="150px"
	 viewBox="0 0 150 150" enable-background="new 0 0 150 150" xml:space="preserve">
<metadata>
	<sfw  xmlns="&ns_sfw;">
		<slices></slices>
		<sliceSourceBounds  height="136.564" width="137.832" y="328.931" x="237.506" bottomLeftOrigin="true"></sliceSourceBounds>
	</sfw>
</metadata>
<path fill="#383838" d="M137.253,28.761h-6.743V6.006H86.25v22.755H14.594c-4.176,0-7.587,3.414-7.587,7.59v98.63
	c0,4.176,3.411,7.59,7.587,7.59h122.659c4.175,0,7.586-3.414,7.586-7.59v-98.63C144.839,32.175,141.428,28.761,137.253,28.761z
	 M93.84,13.596h29.084v15.165H93.84V13.596z M77.066,133.781c-26.535,0-48.108-21.582-48.108-48.112
	c0-26.528,21.574-48.116,48.108-48.116c26.528,0,48.12,21.588,48.12,48.116C125.187,112.199,103.595,133.781,77.066,133.781z"/>
<path fill="#383838" d="M77.059,57.166c-15.707,0-28.488,12.792-28.488,28.499c0,15.711,12.781,28.487,28.488,28.487
	c15.72,0,28.5-12.776,28.5-28.487C105.559,69.958,92.778,57.166,77.059,57.166z M77.059,106.484
	c-11.495,0-20.822-9.323-20.822-20.822c0-11.507,9.327-20.831,20.822-20.831c11.515,0,20.835,9.324,20.835,20.831
	C97.894,97.161,88.573,106.484,77.059,106.484z"/>
<path fill="#383838" d="M77.066,42.611c-23.738,0-43.054,19.312-43.054,43.058c0,23.737,19.315,43.054,43.054,43.054
	c23.749,0,43.059-19.314,43.059-43.054C120.124,61.923,100.815,42.611,77.066,42.611z M77.059,118.713
	c-18.217,0-33.04-14.823-33.04-33.048c0-18.224,14.823-33.044,33.04-33.044c18.229,0,33.056,14.82,33.056,33.044
	C110.114,103.89,95.286,118.713,77.059,118.713z"/>
</svg>
