<?xml version="1.0" encoding="utf-8"?>
<!-- Generator: Adobe Illustrator 15.0.0, SVG Export Plug-In . SVG Version: 6.00 Build 0)  -->
<!DOCTYPE svg PUBLIC "-//W3C//DTD SVG 1.1//EN" "http://www.w3.org/Graphics/SVG/1.1/DTD/svg11.dtd" [
	<!ENTITY ns_extend "http://ns.adobe.com/Extensibility/1.0/">
	<!ENTITY ns_ai "http://ns.adobe.com/AdobeIllustrator/10.0/">
	<!ENTITY ns_graphs "http://ns.adobe.com/Graphs/1.0/">
	<!ENTITY ns_vars "http://ns.adobe.com/Variables/1.0/">
	<!ENTITY ns_imrep "http://ns.adobe.com/ImageReplacement/1.0/">
	<!ENTITY ns_sfw "http://ns.adobe.com/SaveForWeb/1.0/">
	<!ENTITY ns_custom "http://ns.adobe.com/GenericCustomNamespace/1.0/">
	<!ENTITY ns_adobe_xpath "http://ns.adobe.com/XPath/1.0/">
]>
<svg version="1.1" id="Layer_1" xmlns:x="&ns_extend;" xmlns:i="&ns_ai;" xmlns:graph="&ns_graphs;"
	 xmlns="http://www.w3.org/2000/svg" xmlns:xlink="http://www.w3.org/1999/xlink" x="0px" y="0px" width="48px" height="48px"
	 viewBox="0 0 48 48" enable-background="new 0 0 48 48" xml:space="preserve">
<metadata>
	<sfw  xmlns="&ns_sfw;">
		<slices></slices>
		<sliceSourceBounds  height="41.279" width="36.838" y="375.503" x="287.506" bottomLeftOrigin="true"></sliceSourceBounds>
	</sfw>
</metadata>
<polygon fill="#383838" points="41.291,12.055 41.291,37.069 17.068,37.069 17.068,5.27 34.631,5.27 34.631,12.055 42.844,12.055 
	34.636,3.726 34.636,3.718 15.517,3.718 15.517,38.622 42.844,38.622 42.844,12.055 "/>
<path id="microphone-3-icon_5_" fill="#383838" d="M11.477,27.657v-9.536c0-2.935,2.38-5.314,5.316-5.314
	c2.935,0,5.313,2.379,5.313,5.314v9.536c0,2.936-2.379,5.314-5.313,5.314C13.857,32.973,11.477,30.593,11.477,27.657z
	 M24.451,24.923v2.735c0,4.224-3.437,7.659-7.658,7.659c-4.225,0-7.661-3.436-7.661-7.659v-2.735H6.006v2.735
	c0,5.349,3.914,9.8,9.027,10.643v3.569h-4.495v3.127h12.506V41.87h-4.493v-3.569c5.113-0.842,9.025-5.293,9.025-10.643v-2.735
	H24.451z"/>
</svg>
