<?xml version="1.0" encoding="utf-8"?>
<!-- Generator: Adobe Illustrator 15.0.0, SVG Export Plug-In . SVG Version: 6.00 Build 0)  -->
<!DOCTYPE svg PUBLIC "-//W3C//DTD SVG 1.1//EN" "http://www.w3.org/Graphics/SVG/1.1/DTD/svg11.dtd" [
	<!ENTITY ns_extend "http://ns.adobe.com/Extensibility/1.0/">
	<!ENTITY ns_ai "http://ns.adobe.com/AdobeIllustrator/10.0/">
	<!ENTITY ns_graphs "http://ns.adobe.com/Graphs/1.0/">
	<!ENTITY ns_vars "http://ns.adobe.com/Variables/1.0/">
	<!ENTITY ns_imrep "http://ns.adobe.com/ImageReplacement/1.0/">
	<!ENTITY ns_sfw "http://ns.adobe.com/SaveForWeb/1.0/">
	<!ENTITY ns_custom "http://ns.adobe.com/GenericCustomNamespace/1.0/">
	<!ENTITY ns_adobe_xpath "http://ns.adobe.com/XPath/1.0/">
]>
<svg version="1.1" id="Layer_1" xmlns:x="&ns_extend;" xmlns:i="&ns_ai;" xmlns:graph="&ns_graphs;"
	 xmlns="http://www.w3.org/2000/svg" xmlns:xlink="http://www.w3.org/1999/xlink" x="0px" y="0px" width="48px" height="48px"
	 viewBox="0 0 48 48" enable-background="new 0 0 48 48" xml:space="preserve">
<metadata>
	<sfw  xmlns="&ns_sfw;">
		<slices></slices>
		<sliceSourceBounds  height="39.866" width="39.866" y="376.63" x="285.504" bottomLeftOrigin="true"></sliceSourceBounds>
	</sfw>
</metadata>
<path id="danger-3-icon_2_" fill="#383838" d="M26.321,19.974l3.596-6.229c3.575,2.069,5.979,5.933,5.979,10.358h-7.188
	C28.71,22.341,27.746,20.8,26.321,19.974z M21.551,28.232l-3.596,6.229c1.761,1.017,3.802,1.601,5.982,1.601
	c2.178,0,4.222-0.584,5.979-1.601l-3.596-6.229C24.878,29.07,23.06,29.107,21.551,28.232z M21.552,19.974l-3.597-6.229
	c-3.573,2.07-5.976,5.933-5.976,10.359h7.188C19.166,22.341,20.127,20.8,21.552,19.974z M23.938,26.845
	c1.515,0,2.738-1.229,2.738-2.741s-1.226-2.739-2.738-2.739s-2.741,1.226-2.741,2.739S22.423,26.845,23.938,26.845z M43.87,23.937
	c0,11.009-8.925,19.934-19.934,19.934S4.004,34.945,4.004,23.937c0-11.008,8.925-19.933,19.934-19.933
	C34.947,4.004,43.87,12.928,43.87,23.937z M39.999,23.937c0-8.878-7.185-16.062-16.062-16.062c-8.879,0-16.062,7.186-16.062,16.062
	c0,8.88,7.185,16.062,16.062,16.062C32.816,39.998,39.999,32.814,39.999,23.937z"/>
</svg>
