<?xml version="1.0" encoding="utf-8"?>
<!-- Generator: Adobe Illustrator 15.0.0, SVG Export Plug-In . SVG Version: 6.00 Build 0)  -->
<!DOCTYPE svg PUBLIC "-//W3C//DTD SVG 1.1//EN" "http://www.w3.org/Graphics/SVG/1.1/DTD/svg11.dtd" [
	<!ENTITY ns_extend "http://ns.adobe.com/Extensibility/1.0/">
	<!ENTITY ns_ai "http://ns.adobe.com/AdobeIllustrator/10.0/">
	<!ENTITY ns_graphs "http://ns.adobe.com/Graphs/1.0/">
	<!ENTITY ns_vars "http://ns.adobe.com/Variables/1.0/">
	<!ENTITY ns_imrep "http://ns.adobe.com/ImageReplacement/1.0/">
	<!ENTITY ns_sfw "http://ns.adobe.com/SaveForWeb/1.0/">
	<!ENTITY ns_custom "http://ns.adobe.com/GenericCustomNamespace/1.0/">
	<!ENTITY ns_adobe_xpath "http://ns.adobe.com/XPath/1.0/">
]>
<svg version="1.1" id="Layer_1" xmlns:x="&ns_extend;" xmlns:i="&ns_ai;" xmlns:graph="&ns_graphs;"
	 xmlns="http://www.w3.org/2000/svg" xmlns:xlink="http://www.w3.org/1999/xlink" x="0px" y="0px" width="48px" height="48px"
	 viewBox="0 0 48 48" enable-background="new 0 0 48 48" xml:space="preserve">
<metadata>
	<sfw  xmlns="&ns_sfw;">
		<slices></slices>
		<sliceSourceBounds  height="37.146" width="37.49" y="378.349" x="286.505" bottomLeftOrigin="true"></sliceSourceBounds>
	</sfw>
</metadata>
<path fill="#383838" d="M40.433,11.194h-1.834V5.005H26.56v6.189H7.068c-1.135,0-2.063,0.929-2.063,2.065v26.828
	c0,1.136,0.928,2.064,2.063,2.064h33.364c1.136,0,2.063-0.93,2.063-2.064V13.259C42.496,12.123,41.567,11.194,40.433,11.194z
	 M28.624,7.069h7.91v4.125h-7.91V7.069z M24.062,39.761c-7.218,0-13.086-5.87-13.086-13.087c0-7.216,5.868-13.088,13.086-13.088
	c7.216,0,13.089,5.872,13.089,13.088C37.151,33.891,31.276,39.761,24.062,39.761z"/>
<path fill="#383838" d="M24.06,18.921c-4.272,0-7.749,3.479-7.749,7.752c0,4.273,3.477,7.749,7.749,7.749
	c4.275,0,7.751-3.476,7.751-7.749C31.812,22.401,28.335,18.921,24.06,18.921z M24.06,32.336c-3.127,0-5.664-2.536-5.664-5.664
	c0-3.13,2.537-5.666,5.664-5.666c3.131,0,5.667,2.536,5.667,5.666C29.728,29.8,27.191,32.336,24.06,32.336z"/>
<path fill="#383838" d="M24.062,14.962c-6.457,0-11.711,5.253-11.711,11.712c0,6.457,5.254,11.711,11.711,11.711
	c6.46,0,11.712-5.254,11.712-11.711C35.774,20.215,30.522,14.962,24.062,14.962z M24.06,35.662c-4.955,0-8.987-4.032-8.987-8.989
	s4.032-8.988,8.987-8.988c4.958,0,8.991,4.031,8.991,8.988S29.018,35.662,24.06,35.662z"/>
</svg>
