<?xml version="1.0" encoding="utf-8"?>
<!-- Generator: Adobe Illustrator 15.0.0, SVG Export Plug-In . SVG Version: 6.00 Build 0)  -->
<!DOCTYPE svg PUBLIC "-//W3C//DTD SVG 1.1//EN" "http://www.w3.org/Graphics/SVG/1.1/DTD/svg11.dtd" [
	<!ENTITY ns_extend "http://ns.adobe.com/Extensibility/1.0/">
	<!ENTITY ns_ai "http://ns.adobe.com/AdobeIllustrator/10.0/">
	<!ENTITY ns_graphs "http://ns.adobe.com/Graphs/1.0/">
	<!ENTITY ns_vars "http://ns.adobe.com/Variables/1.0/">
	<!ENTITY ns_imrep "http://ns.adobe.com/ImageReplacement/1.0/">
	<!ENTITY ns_sfw "http://ns.adobe.com/SaveForWeb/1.0/">
	<!ENTITY ns_custom "http://ns.adobe.com/GenericCustomNamespace/1.0/">
	<!ENTITY ns_adobe_xpath "http://ns.adobe.com/XPath/1.0/">
]>
<svg version="1.1" id="Layer_1" xmlns:x="&ns_extend;" xmlns:i="&ns_ai;" xmlns:graph="&ns_graphs;"
	 xmlns="http://www.w3.org/2000/svg" xmlns:xlink="http://www.w3.org/1999/xlink" x="0px" y="0px" width="32px" height="32px"
	 viewBox="0 0 32 32" enable-background="new 0 0 32 32" xml:space="preserve">
<metadata>
	<sfw  xmlns="&ns_sfw;">
		<slices></slices>
		<sliceSourceBounds  x="290.465" y="384.906" width="30.071" height="21.091" bottomLeftOrigin="true"></sliceSourceBounds>
	</sfw>
</metadata>
<path id="user-icon_10_" fill="#808080" d="M28.375,22.642c-2.879-0.664-5.559-1.246-4.26-3.69c3.949-7.448,1.047-11.43-3.125-11.43
	c-4.254,0-7.085,4.134-3.125,11.43c1.338,2.461-1.443,3.04-4.26,3.69c-2.877,0.662-2.656,2.181-2.656,4.935h20.083
	C31.031,24.82,31.252,23.304,28.375,22.642z"/>
<rect x="14.319" y="6.504" fill="#231F20" width="13.341" height="13.342"/>
<path id="user-14-icon_6_" fill="#58595B" d="M3.084,23.665c2.293-0.529,4.427-0.992,3.393-2.941
	c-3.146-5.932-0.833-9.104,2.488-9.104c2.25,0,4.002,1.45,4.002,4.126c0,7.411-4.227,3.393-4.229,11.85h-7.77
	C0.968,25.4,0.792,24.193,3.084,23.665z"/>
</svg>
