<?xml version="1.0" encoding="utf-8"?>
<!-- Generator: Adobe Illustrator 18.1.1, SVG Export Plug-In . SVG Version: 6.00 Build 0)  -->
<svg version="1.1" id="Layer_1" xmlns="http://www.w3.org/2000/svg" xmlns:xlink="http://www.w3.org/1999/xlink" x="0px" y="0px"
	 viewBox="0 0 500 500" enable-background="new 0 0 500 500" xml:space="preserve">
<polygon fill="#0E8800" points="274.8,340.7 225.2,340.7 160.8,198.8 210.3,198.8 "/>
<path fill="#16B600" d="M367.9,135.5c-10.8-11.1-23.1-20.7-36.6-28.4c-0.1,0-0.1-0.1-0.2-0.1l-17,37.4c0.1,0,0.1,0.1,0.2,0.1
	l-24.6,54.2h0l-64.4,141.9h49.5l64.4-141.9h-0.1l10.1-22.2c15.2,20.5,24.2,45.9,24.2,73.4c0,68.2-55.3,123.4-123.4,123.4
	c-68.2,0-123.4-55.3-123.4-123.4c0-68.2,55.3-123.4,123.4-123.4c9.2,0,18.1,1,26.8,2.9L294,91.6c-14-3.9-28.7-6-44-6
	c-90.8,0-164.3,73.6-164.3,164.3c0,90.8,73.6,164.3,164.3,164.3c90.8,0,164.3-73.6,164.3-164.3C414.3,205.5,396.6,165.1,367.9,135.5
	z"/>
</svg>
