<?xml version="1.0" encoding="utf-8"?>
<!-- Generator: Adobe Illustrator 18.1.1, SVG Export Plug-In . SVG Version: 6.00 Build 0)  -->
<svg version="1.1" id="Layer_1" xmlns="http://www.w3.org/2000/svg" xmlns:xlink="http://www.w3.org/1999/xlink" x="0px" y="0px"
	 viewBox="0 0 500 500" enable-background="new 0 0 500 500" xml:space="preserve">
<path fill="#E0E0E0" d="M-1350-306.1c0,19.9,16.2,36.1,36.1,36.1h327.9c19.9,0,36.1-16.2,36.1-36.1v-327.9
	c0-19.9-16.1-36.1-36.1-36.1h-327.9c-19.9,0-36.1,16.2-36.1,36.1V-306.1z"/>
<path fill="#909090" d="M-1095-753.2c0,5.2,4.2,9.4,9.4,9.4h23c5.2,0,9.4-4.2,9.4-9.4v-23c0-5.2-4.2-9.4-9.4-9.4h-23
	c-5.2,0-9.4,4.2-9.4,9.4V-753.2z"/>
<path fill="#CBCBCB" d="M-1261.8-529.7l-88.2,196.9v26.8c0,19.9,16.2,36.1,36.1,36.1h202.8l50.5-110.6"/>
<g>
	<path fill="#464646" d="M-1150-565.3c-52.6,0-95.3,42.7-95.3,95.3c0,42.6,28,78.7,66.5,90.9l78.1-172.4
		C-1115-560.3-1131.9-565.3-1150-565.3z"/>
	<path fill="#313131" d="M-1100.7-551.5l-78.1,172.4c9.1,2.9,18.7,4.4,28.8,4.4c52.6,0,95.3-42.7,95.3-95.3
		C-1054.7-504.6-1073.1-534.8-1100.7-551.5z"/>
	<path fill="#323232" d="M-1150-535c-35.9,0-65,29.1-65,65c0,30.3,20.8,55.8,48.8,63l52.8-116.6C-1123.7-530.8-1136.4-535-1150-535z
		"/>
	<path fill="#1B1B1B" d="M-1113.3-523.6l-52.8,116.6c5.2,1.3,10.6,2,16.1,2c35.9,0,65-29.1,65-65
		C-1085-492.3-1096.2-511.9-1113.3-523.6z"/>
</g>
<g>
	
		<image overflow="visible" opacity="0.75" width="1179" height="1179" xlink:href="54BA75DB55A254F5.png"  transform="matrix(0.24 0 0 0.24 -489.8653 -2458.5095)">
	</image>
	<g>
		<g>
			<path fill="#444444" d="M-351.4-2415c-52.4,0-94.9,42.5-94.9,94.9c0,42.5,27.9,78.4,66.3,90.5l9.5-21l-49.5-109h38.1l30.4,67
				l49.4-109.1c-8.7-5.3-18.4-9.2-28.6-11.5l-0.1,0.3C-337.5-2414.3-344.4-2415-351.4-2415z"/>
			<path fill="#323232" d="M-380.1-2229.5c9,2.9,18.7,4.4,28.6,4.4c52.4,0,94.9-42.5,94.9-94.9c0-21.2-6.9-40.7-18.6-56.5l-7.8,17.1
				h0l-49.5,109.1h-38.1l-0.1-0.2L-380.1-2229.5z"/>
			<path fill="#323232" d="M-351.5-2292.3l30.5-67.2h0l18.9-41.7c0,0-0.1-0.1-0.1-0.1l0.1-0.3c0,0,0,0-0.1,0l-49.4,109.1
				L-351.5-2292.3z"/>
			<polygon fill="#0E8800" points="-382,-2359.5 -420.1,-2359.5 -370.6,-2250.5 -370.5,-2250.3 -351.5,-2292.3 -351.6,-2292.5 			
				"/>
			<path fill="#16B600" d="M-260.8-2408.2c-8.3-8.5-17.8-15.9-28.2-21.8c0,0-0.1-0.1-0.1-0.1l-12.9,28.5l-0.1,0.3
				c0,0,0.1,0.1,0.1,0.1l-18.9,41.7h0l-30.5,67.2l-19.1,42h38.1l49.5-109.1h0l7.8-17.1c11.7,15.8,18.6,35.3,18.6,56.5
				c0,52.4-42.5,94.9-94.9,94.9c-10,0-19.6-1.5-28.6-4.4c-38.4-12.1-66.3-48.1-66.3-90.5c0-52.4,42.5-94.9,94.9-94.9
				c7.1,0,14,0.8,20.6,2.2l0.1-0.3l13.1-28.8c-10.8-3-22.1-4.6-33.8-4.6c-69.8,0-126.4,56.6-126.4,126.4
				c0,69.8,56.6,126.4,126.4,126.4c69.8,0,126.4-56.6,126.4-126.4C-225-2354.3-238.7-2385.4-260.8-2408.2z"/>
		</g>
	</g>
</g>
<path fill="#E0E0E0" d="M-1930-306.1c0,19.9,16.2,36.1,36.1,36.1h327.9c19.9,0,36.1-16.2,36.1-36.1v-327.9
	c0-19.9-16.1-36.1-36.1-36.1h-327.9c-19.9,0-36.1,16.2-36.1,36.1V-306.1z"/>
<linearGradient id="SVGID_1_" gradientUnits="userSpaceOnUse" x1="-223.8048" y1="-1458.0554" x2="-427.844" y2="-1458.0554">
	<stop  offset="0" style="stop-color:#ECECEC"/>
	<stop  offset="1" style="stop-color:#A8A8A8"/>
</linearGradient>
<path fill="url(#SVGID_1_)" d="M-410.9-1294.1c0,19.9,16.2,36.1,36.1,36.1H-47c19.9,0,36.1-16.2,36.1-36.1V-1622
	c0-19.9-16.1-36.1-36.1-36.1h-327.9c-19.9,0-36.1,16.2-36.1,36.1V-1294.1z"/>
<path fill="#E0E0E0" d="M-994.8-1294.1c0,19.9,16.2,36.1,36.1,36.1h327.9c19.9,0,36.1-16.2,36.1-36.1V-1622
	c0-19.9-16.1-36.1-36.1-36.1h-327.9c-19.9,0-36.1,16.2-36.1,36.1V-1294.1z"/>
<path fill="#CBCBCB" d="M-906.6-1517.8l-88.2,196.9v26.8c0,19.9,16.2,36.1,36.1,36.1h202.8l50.5-110.6"/>
<g>
	<g>
		<path fill="#323232" d="M-788.8-1551c-52.4,0-94.9,42.5-94.9,94.9c0,42.5,27.9,78.4,66.3,90.5l9.5-21l-49.5-109h38.1l30.4,67
			l49.4-109.1c-8.7-5.3-18.4-9.2-28.6-11.5l-0.1,0.3C-774.8-1550.2-781.7-1551-788.8-1551z"/>
		<path fill="#323232" d="M-817.4-1365.5c9,2.9,18.7,4.4,28.6,4.4c52.4,0,94.9-42.5,94.9-94.9c0-21.2-6.9-40.7-18.6-56.5l-7.8,17.1
			h0l-49.5,109.1h-38.1l-0.1-0.2L-817.4-1365.5z"/>
		<path fill="#323232" d="M-788.8-1428.3l30.5-67.2h0l18.9-41.7c0,0-0.1-0.1-0.1-0.1l0.1-0.3c0,0,0,0-0.1,0l-49.4,109.1
			L-788.8-1428.3z"/>
		<polygon fill="#323232" points="-819.3,-1495.4 -857.4,-1495.4 -807.9,-1386.5 -807.9,-1386.3 -788.8,-1428.3 -788.9,-1428.5 		
			"/>
		<path fill="#323232" d="M-698.1-1544.1c-8.3-8.5-17.8-15.9-28.2-21.8c0,0-0.1-0.1-0.1-0.1l-12.9,28.5l-0.1,0.3
			c0,0,0.1,0.1,0.1,0.1l-18.9,41.7h0l-30.5,67.2l-19.1,42h38.1l49.5-109.1h0l7.8-17.1c11.7,15.8,18.6,35.3,18.6,56.5
			c0,52.4-42.5,94.9-94.9,94.9c-10,0-19.6-1.5-28.6-4.4c-38.4-12.1-66.3-48.1-66.3-90.5c0-52.4,42.5-94.9,94.9-94.9
			c7.1,0,14,0.8,20.6,2.2l0.1-0.3l13.1-28.8c-10.8-3-22.1-4.6-33.8-4.6c-69.8,0-126.4,56.6-126.4,126.4
			c0,69.8,56.6,126.4,126.4,126.4c69.8,0,126.4-56.6,126.4-126.4C-662.4-1490.3-676-1521.4-698.1-1544.1z"/>
	</g>
	<g>
		<g>
			<path fill="#444444" d="M-790.8-1553c-52.4,0-94.9,42.5-94.9,94.9c0,42.5,27.9,78.4,66.3,90.5l9.5-21l-49.5-109h38.1l30.4,67
				l49.4-109.1c-8.7-5.3-18.4-9.2-28.6-11.5l-0.1,0.3C-776.8-1552.2-783.7-1553-790.8-1553z"/>
			<path fill="#323232" d="M-819.4-1367.5c9,2.9,18.7,4.4,28.6,4.4c52.4,0,94.9-42.5,94.9-94.9c0-21.2-6.9-40.7-18.6-56.5l-7.8,17.1
				h0l-49.5,109.1h-38.1l-0.1-0.2L-819.4-1367.5z"/>
			<path fill="#323232" d="M-790.8-1430.3l30.5-67.2h0l18.9-41.7c0,0-0.1-0.1-0.1-0.1l0.1-0.3c0,0,0,0-0.1,0l-49.4,109.1
				L-790.8-1430.3z"/>
			<polygon fill="#0E8800" points="-821.3,-1497.4 -859.4,-1497.4 -809.9,-1388.5 -809.9,-1388.3 -790.8,-1430.3 -790.9,-1430.5 			
				"/>
			<path fill="#16B600" d="M-700.1-1546.1c-8.3-8.5-17.8-15.9-28.2-21.8c0,0-0.1-0.1-0.1-0.1l-12.9,28.5l-0.1,0.3
				c0,0,0.1,0.1,0.1,0.1l-18.9,41.7h0l-30.5,67.2l-19.1,42h38.1l49.5-109.1h0l7.8-17.1c11.7,15.8,18.6,35.3,18.6,56.5
				c0,52.4-42.5,94.9-94.9,94.9c-10,0-19.6-1.5-28.6-4.4c-38.4-12.1-66.3-48.1-66.3-90.5c0-52.4,42.5-94.9,94.9-94.9
				c7.1,0,14,0.8,20.6,2.2l0.1-0.3l13.1-28.8c-10.8-3-22.1-4.6-33.8-4.6c-69.8,0-126.4,56.6-126.4,126.4
				c0,69.8,56.6,126.4,126.4,126.4c69.8,0,126.4-56.6,126.4-126.4C-664.4-1492.3-678-1523.4-700.1-1546.1z"/>
		</g>
	</g>
</g>
<linearGradient id="SVGID_2_" gradientUnits="userSpaceOnUse" x1="-794.8047" y1="-1846.6277" x2="-794.8047" y2="-1710.9109">
	<stop  offset="0" style="stop-color:#ECECEC"/>
	<stop  offset="1" style="stop-color:#A8A8A8"/>
</linearGradient>
<path fill="url(#SVGID_2_)" d="M-994.8-1757.3c0,19.9,16.2,36.1,36.1,36.1h327.9c19.9,0,36.1-16.2,36.1-36.1v-327.9
	c0-19.9-16.1-36.1-36.1-36.1h-327.9c-19.9,0-36.1,16.2-36.1,36.1V-1757.3z"/>
<path fill="#E0E0E0" d="M-3090-306.1c0,19.9,16.2,36.1,36.1,36.1h327.9c19.9,0,36.1-16.2,36.1-36.1v-327.9
	c0-19.9-16.1-36.1-36.1-36.1h-327.9c-19.9,0-36.1,16.2-36.1,36.1V-306.1z"/>
<path fill="#CBCBCB" d="M-2979.4-559.4L-3090-431v124.9c0,19.9,16.2,36.1,36.1,36.1h202.8l50.5-110.6"/>
<path fill="#383838" d="M-2794.7-470c0,52.6-42.7,95.3-95.3,95.3c-52.6,0-95.3-42.7-95.3-95.3c0-52.6,42.7-95.3,95.3-95.3
	C-2837.4-565.3-2794.7-522.6-2794.7-470z"/>
<path fill="#E0E0E0" d="M-3670-306.1c0,19.9,16.2,36.1,36.1,36.1h327.9c19.9,0,36.1-16.2,36.1-36.1v-327.9
	c0-19.9-16.1-36.1-36.1-36.1h-327.9c-19.9,0-36.1,16.2-36.1,36.1V-306.1z"/>
<path fill="#E0E0E0" d="M-4250-306.1c0,19.9,16.1,36.1,36.1,36.1h327.9c19.9,0,36.1-16.2,36.1-36.1v-327.9
	c0-19.9-16.1-36.1-36.1-36.1h-327.9c-19.9,0-36.1,16.2-36.1,36.1V-306.1z"/>
<path fill="#CBCBCB" d="M-4152.2-572.2L-4250-475v168.9c0,19.9,16.1,36.1,36.1,36.1h168.8l97.3-97.8"/>
<path fill="#383838" d="M-3905.5-470c0,79.8-64.7,144.5-144.5,144.5c-79.8,0-144.5-64.7-144.5-144.5c0-79.8,64.7-144.5,144.5-144.5
	C-3970.2-614.5-3905.5-549.8-3905.5-470z"/>
<polygon fill="#6BBBC2" points="-4739.7,-491.6 -4722.8,-491.6 -4700.8,-540.1 -4717.7,-540.1 "/>
<polygon fill="#0AAEBF" points="-4722.8,-491.6 -4739.7,-491.6 -4761.8,-540.1 -4744.8,-540.1 "/>
<g id="_x37_rhaQo.tif">
	
		<image overflow="visible" width="262" height="262" id="Layer_0_1_" xlink:href="54BA75DB55A254F7.png"  transform="matrix(1 0 0 1 -3147.4141 -1019.9624)">
	</image>
</g>
<circle fill="#383838" cx="-3901.3" cy="-618.7" r="18.6"/>
<path fill="#0E8800" d="M-3919.9-470c0,71.8-58.2,130.1-130.1,130.1c-71.8,0-130.1-58.2-130.1-130.1c0-71.8,58.2-130.1,130.1-130.1
	C-3978.2-600.1-3919.9-541.8-3919.9-470z"/>
<path fill="#FFFFFF" d="M-3944.5-470c0,58.3-47.2,105.5-105.5,105.5c-58.3,0-105.5-47.2-105.5-105.5c0-58.3,47.2-105.5,105.5-105.5
	C-3991.7-575.5-3944.5-528.3-3944.5-470z"/>
<g>
	<polygon fill="#0E8800" points="-4015.1,-517.5 -4015.1,-517.5 -4071.8,-392.5 -4028.2,-392.5 -3971.4,-517.5 -3971.4,-517.5 
		-3958.8,-545.2 -3992.5,-567.2 	"/>
</g>
<polygon fill="#16B600" points="-4028.2,-392.5 -4071.8,-392.5 -4128.6,-517.5 -4084.9,-517.5 "/>
<circle fill="#383838" cx="-3616.4" cy="-615.9" r="21.4"/>
<polygon fill="#383838" points="-3451,-400.2 -3489.1,-400.2 -3538.6,-509.4 -3500.5,-509.4 "/>
<polygon fill="#0E8800" points="-2871,-400.3 -2909.1,-400.3 -2958.6,-509.4 -2920.5,-509.4 "/>
<path fill="#16B600" d="M-2799.3-558.1c-8.3-8.5-17.8-15.9-28.2-21.8c0,0-0.1-0.1-0.1-0.1l-13.1,28.8c0,0,0.1,0.1,0.1,0.1
	l-18.9,41.7h0l-49.5,109.1h38.1l49.5-109.1h0l7.8-17.1c11.7,15.8,18.6,35.3,18.6,56.5c0,52.4-42.5,94.9-94.9,94.9
	c-52.4,0-94.9-42.5-94.9-94.9c0-52.4,42.5-94.9,94.9-94.9c7.1,0,14,0.8,20.6,2.2l13.2-29.1c-10.8-3-22.1-4.6-33.8-4.6
	c-69.8,0-126.4,56.6-126.4,126.4c0,69.8,56.6,126.4,126.4,126.4c69.8,0,126.4-56.6,126.4-126.4
	C-2763.6-504.3-2777.2-535.3-2799.3-558.1z"/>
<path fill="#383838" d="M-3379.3-558.1c-8.3-8.5-17.8-15.9-28.2-21.8c0,0-0.1-0.1-0.1-0.1l-13.1,28.8c0,0,0.1,0.1,0.1,0.1
	l-18.9,41.7h0l-49.5,109.1h38.1l49.5-109.1h0l7.8-17.1c11.7,15.8,18.6,35.3,18.6,56.5c0,52.4-42.5,94.9-94.9,94.9
	c-52.4,0-94.9-42.5-94.9-94.9c0-52.4,42.5-94.9,94.9-94.9c7.1,0,14,0.8,20.6,2.2l13.2-29.1c-10.8-3-22.1-4.6-33.8-4.6
	c-69.8,0-126.4,56.6-126.4,126.4c0,69.8,56.6,126.4,126.4,126.4c69.8,0,126.4-56.6,126.4-126.4
	C-3343.6-504.3-3357.2-535.3-3379.3-558.1z"/>
<path fill="#E0E0E0" d="M-2510-306.1c0,19.9,16.2,36.1,36.1,36.1h327.9c19.9,0,36.1-16.2,36.1-36.1v-327.9
	c0-19.9-16.1-36.1-36.1-36.1h-327.9c-19.9,0-36.1,16.2-36.1,36.1V-306.1z"/>
<path fill="#A8A8A8" d="M-2399.4-559.4L-2510-453v146.9c0,19.9,16.2,36.1,36.1,36.1h142.8l110.5-110.6"/>
<path fill="#383838" d="M-2215.3-470.2c0,52.3-42.4,94.7-94.7,94.7c-52.3,0-94.7-42.4-94.7-94.7c0-52.3,42.4-94.7,94.7-94.7
	C-2257.7-564.9-2215.3-522.5-2215.3-470.2z"/>
<circle fill="#383838" cx="-2162.1" cy="-615.8" r="21.5"/>
<polygon fill="#0E8800" points="-2291,-400.3 -2329.1,-400.3 -2378.6,-509.4 -2340.5,-509.4 "/>
<path fill="#16B600" d="M-2219.3-558.1c-8.3-8.5-17.8-15.9-28.2-21.8c0,0-0.1-0.1-0.1-0.1l-13.1,28.8c0,0,0.1,0.1,0.1,0.1
	l-18.9,41.7h0l-49.5,109.1h38.1l49.5-109.1h0l7.8-17.1c11.7,15.8,18.6,35.3,18.6,56.5c0,52.4-42.5,94.9-94.9,94.9
	c-52.4,0-94.9-42.5-94.9-94.9c0-52.4,42.5-94.9,94.9-94.9c7.1,0,14,0.8,20.6,2.2l13.2-29.1c-10.8-3-22.1-4.6-33.8-4.6
	c-69.8,0-126.4,56.6-126.4,126.4c0,69.8,56.6,126.4,126.4,126.4c69.8,0,126.4-56.6,126.4-126.4
	C-2183.6-504.3-2197.2-535.3-2219.3-558.1z"/>
<g>
	<path opacity="0.7" fill="#FFFFFF" d="M-2246.5-432.5c1.6,3.2,2.6,6.9,2.6,10.8c0,13.3-10.8,24-24,24c-4.3,0-8.4-1.2-11.9-3.2
		c0.2,17.2,14.2,31,31.4,31c17.3,0,31.4-14,31.4-31.4C-2217.1-417.8-2230.1-431.4-2246.5-432.5z"/>
</g>
<circle fill="#FFFFFF" cx="-2267.9" cy="-421.7" r="22.4"/>
<circle fill="#383838" cx="-2741.8" cy="-615.8" r="20.2"/>
<g id="ogOxMH.tif">
	
		<image overflow="visible" width="300" height="300" id="Layer_0_2_" xlink:href="54BA75DB55A254F2.png"  transform="matrix(1 0 0 1 -2395.5234 -45.0127)">
	</image>
</g>
<g>
	<g>
		<path fill="#323232" d="M-870.8-1056.1c-52.4,0-94.9,42.5-94.9,94.9c0,52.4,42.5,94.9,94.9,94.9c52.4,0,94.9-42.5,94.9-94.9
			c0-21.2-6.9-40.7-18.6-56.5l-7.8,17.1h0l-5.1,11.3c3.7,8.5,5.8,17.9,5.8,27.8c0,31-20.4,57.3-48.5,66.1l-1.8,3.9h-38.1l-1.8-3.9
			c-28.1-8.8-48.4-35.1-48.4-66.1c0-9.9,2.1-19.3,5.8-27.8l-5.2-11.4h11.5c12.5-18.2,33.4-30.1,57.2-30.1c14.4,0,27.7,4.4,38.7,11.8
			l10.6-23.4c0,0-0.1-0.1-0.1-0.1l0.2-0.5c-8.7-5.3-18.4-9.3-28.7-11.5l-0.2,0.5C-856.9-1055.3-863.8-1056.1-870.8-1056.1z"/>
		<path fill="#323232" d="M-801.6-961.4c0-9.9-2.1-19.3-5.8-27.8l-1.8,3.9c2.9,7.4,4.5,15.5,4.5,24c0,28.6-18.2,53-43.6,62.2
			l-1.8,3.9C-821.9-904.1-801.6-930.4-801.6-961.4z"/>
		<path fill="#323232" d="M-928-1000.5h3.8c12-16.4,31.5-27,53.4-27c13.9,0,26.8,4.3,37.4,11.6l1.3-2.9
			c-11.1-7.5-24.4-11.8-38.7-11.8C-894.6-1030.7-915.5-1018.7-928-1000.5z"/>
		<path fill="#323232" d="M-937-961.4c0-8.4,1.6-16.5,4.5-23.9l-1.8-3.9c-3.7,8.5-5.8,17.9-5.8,27.8c0,31,20.4,57.2,48.4,66.1
			l-1.8-3.9C-918.8-908.4-937-932.8-937-961.4z"/>
		<path fill="#323232" d="M-924.2-1000.5h22.8l30.5,67.2l30.5-67.2h0l7-15.4c-10.6-7.3-23.5-11.6-37.4-11.6
			C-892.7-1027.6-912.1-1016.9-924.2-1000.5z"/>
		<path fill="#323232" d="M-804.6-961.4c0-8.5-1.6-16.5-4.5-24l-39.1,86.2C-822.8-908.4-804.6-932.8-804.6-961.4z"/>
		<path fill="#323232" d="M-893.4-899.2l-39.1-86.2c-2.9,7.4-4.5,15.5-4.5,23.9C-937-932.8-918.8-908.4-893.4-899.2z"/>
		<polygon fill="#323232" points="-924.2,-1000.5 -928,-1000.5 -939.4,-1000.5 -934.3,-989.2 -932.5,-985.3 -893.4,-899.2 
			-891.7,-895.3 -889.9,-891.4 -870.8,-933.4 -901.3,-1000.5 		"/>
		<path fill="#323232" d="M-780.2-1049.2c-8.3-8.5-17.8-15.9-28.2-21.8c0,0-0.1-0.1-0.1-0.1l-12.9,28.3l-0.2,0.5
			c0,0,0.1,0.1,0.1,0.1l-10.6,23.4l-1.3,2.9l-7,15.4h0l-30.5,67.2l-19.1,42h38.1l1.8-3.9l1.8-3.9l39.1-86.2l1.8-3.9l5.1-11.3h0
			l7.8-17.1c11.7,15.8,18.6,35.3,18.6,56.5c0,52.4-42.5,94.9-94.9,94.9c-52.4,0-94.9-42.5-94.9-94.9c0-52.4,42.5-94.9,94.9-94.9
			c7.1,0,14,0.8,20.6,2.2l0.2-0.5l13-28.6c-10.8-3-22.1-4.6-33.8-4.6c-69.8,0-126.4,56.6-126.4,126.4c0,69.8,56.6,126.4,126.4,126.4
			c69.8,0,126.4-56.6,126.4-126.4C-744.4-995.4-758-1026.5-780.2-1049.2z"/>
	</g>
	<g>
		<g>
			<path fill="#464646" d="M-873.8-1059.1c-52.4,0-94.9,42.5-94.9,94.9c0,52.4,42.5,94.9,94.9,94.9c52.4,0,94.9-42.5,94.9-94.9
				c0-21.2-6.9-40.7-18.6-56.5l-7.8,17.1h0l-5.1,11.3c3.7,8.5,5.8,17.9,5.8,27.8c0,31-20.4,57.3-48.5,66.1l-1.8,3.9h-38.1l-1.8-3.9
				c-28.1-8.8-48.4-35.1-48.4-66.1c0-9.9,2.1-19.3,5.8-27.8l-5.2-11.4h11.5c12.5-18.2,33.4-30.1,57.2-30.1
				c14.4,0,27.7,4.4,38.7,11.8l10.6-23.4c0,0-0.1-0.1-0.1-0.1l0.2-0.5c-8.7-5.3-18.4-9.3-28.7-11.5l-0.2,0.5
				C-859.9-1058.3-866.8-1059.1-873.8-1059.1z"/>
			<path fill="#FFFFFF" d="M-804.6-964.4c0-9.9-2.1-19.3-5.8-27.8l-1.8,3.9c2.9,7.4,4.5,15.5,4.5,24c0,28.6-18.2,53-43.6,62.2
				l-1.8,3.9C-824.9-907.1-804.6-933.4-804.6-964.4z"/>
			<path fill="#FFFFFF" d="M-931-1003.5h3.8c12-16.4,31.5-27,53.4-27c13.9,0,26.8,4.3,37.4,11.6l1.3-2.9
				c-11.1-7.5-24.4-11.8-38.7-11.8C-897.6-1033.7-918.5-1021.7-931-1003.5z"/>
			<path fill="#FFFFFF" d="M-940-964.4c0-8.4,1.6-16.5,4.5-23.9l-1.8-3.9c-3.7,8.5-5.8,17.9-5.8,27.8c0,31,20.4,57.2,48.4,66.1
				l-1.8-3.9C-921.8-911.4-940-935.8-940-964.4z"/>
			<path fill="#323232" d="M-927.2-1003.5h22.8l30.5,67.2l30.5-67.2h0l7-15.4c-10.6-7.3-23.5-11.6-37.4-11.6
				C-895.7-1030.6-915.1-1019.9-927.2-1003.5z"/>
			<path fill="#323232" d="M-807.6-964.4c0-8.5-1.6-16.5-4.5-24l-39.1,86.2C-825.8-911.4-807.6-935.8-807.6-964.4z"/>
			<path fill="#323232" d="M-896.4-902.2l-39.1-86.2c-2.9,7.4-4.5,15.5-4.5,23.9C-940-935.8-921.8-911.4-896.4-902.2z"/>
			<polygon fill="#0E8800" points="-927.2,-1003.5 -931,-1003.5 -942.4,-1003.5 -937.3,-992.2 -935.5,-988.3 -896.4,-902.2 
				-894.7,-898.3 -892.9,-894.4 -873.8,-936.4 -904.3,-1003.5 			"/>
			<path fill="#16B600" d="M-783.2-1052.2c-8.3-8.5-17.8-15.9-28.2-21.8c0,0-0.1-0.1-0.1-0.1l-12.9,28.3l-0.2,0.5
				c0,0,0.1,0.1,0.1,0.1l-10.6,23.4l-1.3,2.9l-7,15.4h0l-30.5,67.2l-19.1,42h38.1l1.8-3.9l1.8-3.9l39.1-86.2l1.8-3.9l5.1-11.3h0
				l7.8-17.1c11.7,15.8,18.6,35.3,18.6,56.5c0,52.4-42.5,94.9-94.9,94.9c-52.4,0-94.9-42.5-94.9-94.9c0-52.4,42.5-94.9,94.9-94.9
				c7.1,0,14,0.8,20.6,2.2l0.2-0.5l13-28.6c-10.8-3-22.1-4.6-33.8-4.6c-69.8,0-126.4,56.6-126.4,126.4
				c0,69.8,56.6,126.4,126.4,126.4c69.8,0,126.4-56.6,126.4-126.4C-747.4-998.4-761-1029.5-783.2-1052.2z"/>
		</g>
	</g>
</g>
<path fill="#464646" d="M-418.8-949.2c0,52.6-42.7,95.3-95.3,95.3c-52.6,0-95.3-42.7-95.3-95.3c0-52.6,42.7-95.3,95.3-95.3
	C-461.4-1044.5-418.8-1001.8-418.8-949.2z"/>
<path fill="#FFFFFF" d="M-444.8-949.2c0,38.3-31,69.3-69.3,69.3c-38.3,0-69.3-31-69.3-69.3c0-38.3,31-69.3,69.3-69.3
	C-475.8-1018.5-444.8-987.5-444.8-949.2z"/>
<circle fill="#323232" cx="-514" cy="-949.2" r="66.2"/>
<g>
	<path fill="#323232" d="M-462.6-996c10.9,12.3,17.5,28.4,17.5,46.2c0,38.4-31.1,69.6-69.6,69.6c-19.6,0-37.2-8.1-49.9-21.1
		c12.7,14.4,31.3,23.4,52,23.4c38.4,0,69.6-31.1,69.6-69.6C-442.9-966.4-450.4-983.5-462.6-996z"/>
</g>
<polygon fill="#0E8800" points="-495,-879.2 -533.1,-879.2 -582.7,-988.3 -544.6,-988.3 "/>
<path fill="#16B600" d="M-423.4-1037.1c-8.3-8.5-17.8-15.9-28.2-21.8c0,0-0.1-0.1-0.1-0.1l-13.1,28.8c0,0,0.1,0.1,0.1,0.1
	l-18.9,41.7h0l-49.5,109.1h38.1l49.5-109.1h0l7.8-17.1c11.7,15.8,18.6,35.3,18.6,56.5c0,52.4-42.5,94.9-94.9,94.9
	c-52.4,0-94.9-42.5-94.9-94.9c0-52.4,42.5-94.9,94.9-94.9c7.1,0,14,0.8,20.6,2.2l13.2-29.1c-10.8-3-22.1-4.6-33.8-4.6
	c-69.8,0-126.4,56.6-126.4,126.4c0,69.8,56.6,126.4,126.4,126.4c69.8,0,126.4-56.6,126.4-126.4
	C-387.6-983.2-401.3-1014.3-423.4-1037.1z"/>
<circle opacity="0.3" fill="#CC3333" cx="-646.6" cy="-2066.8" r="20.2"/>
<circle fill="#CC3333" cx="-646.6" cy="-2066.8" r="10.1"/>
<path fill="#464646" d="M-699.5-1921.4c0,52.6-42.7,95.3-95.3,95.3c-52.6,0-95.3-42.7-95.3-95.3c0-52.6,42.7-95.3,95.3-95.3
	C-742.2-2016.7-699.5-1974.1-699.5-1921.4z"/>
<path fill="#FFFFFF" d="M-725.5-1921.4c0,38.3-31,69.3-69.3,69.3c-38.3,0-69.3-31-69.3-69.3c0-38.3,31-69.3,69.3-69.3
	C-756.5-1990.7-725.5-1959.7-725.5-1921.4z"/>
<circle fill="#323232" cx="-794.8" cy="-1921.4" r="66.2"/>
<g>
	<path fill="#323232" d="M-743.3-1968.3c10.9,12.3,17.5,28.4,17.5,46.2c0,38.4-31.1,69.6-69.6,69.6c-19.6,0-37.2-8.1-49.9-21.1
		c12.7,14.4,31.3,23.4,52,23.4c38.4,0,69.6-31.1,69.6-69.6C-723.6-1938.6-731.1-1955.7-743.3-1968.3z"/>
</g>
<polygon fill="#0E8800" points="-775.8,-1851.5 -813.9,-1851.5 -863.4,-1960.6 -825.3,-1960.6 "/>
<path fill="#16B600" d="M-704.1-2009.3c-8.3-8.5-17.8-15.9-28.2-21.8c0,0-0.1-0.1-0.1-0.1l-13.1,28.8c0,0,0.1,0.1,0.1,0.1
	l-18.9,41.7h0l-49.5,109.1h38.1l49.5-109.1h0l7.8-17.1c11.7,15.8,18.6,35.3,18.6,56.5c0,52.4-42.5,94.9-94.9,94.9
	c-52.4,0-94.9-42.5-94.9-94.9c0-52.4,42.5-94.9,94.9-94.9c7.1,0,14,0.8,20.6,2.2l13.2-29.1c-10.8-3-22.1-4.6-33.8-4.6
	c-69.8,0-126.4,56.6-126.4,126.4c0,69.8,56.6,126.4,126.4,126.4c69.8,0,126.4-56.6,126.4-126.4
	C-668.4-1955.5-682-1986.5-704.1-2009.3z"/>
<g>
	<path fill="none" d="M-865.9-1977.5C-865.9-1977.5-865.9-1977.5-865.9-1977.5C-865.9-1977.5-865.9-1977.5-865.9-1977.5z"/>
	<path fill="none" d="M-846.3-1994.7c0,0,0,0.1,0,0.1C-846.3-1994.6-846.3-1994.7-846.3-1994.7z"/>
	<path fill="#FFFFFF" d="M-865.9-1977.5c2,1.1,4.3,1.7,6.7,1.7c7.6,0,13.8-6.2,13.8-13.8c0-1.7-0.3-3.4-0.9-5c0,0,0-0.1,0-0.1
		c-0.1-0.3-0.2-0.5-0.4-0.8c-2.2-4.6-7-7.8-12.4-7.8c-7.6,0-13.8,6.2-13.8,13.8c0,5,2.6,9.3,6.6,11.7
		C-866.2-1977.7-866.1-1977.6-865.9-1977.5C-865.9-1977.5-865.9-1977.5-865.9-1977.5z"/>
	<path fill="#323232" d="M-848.9-1998.8c0.9,1,1.6,2.1,2.2,3.3c0.1,0.3,0.2,0.5,0.4,0.8c0,0,0,0.1,0,0.1c0.6,1.5,0.9,3.2,0.9,5
		c0,7.6-6.2,13.8-13.8,13.8c-2.4,0-4.7-0.6-6.7-1.7c0,0,0,0,0,0c-0.1-0.1-0.2-0.1-0.4-0.2c-1-0.6-2-1.4-2.8-2.2
		c2.5,2.9,6.2,4.7,10.4,4.7c7.6,0,13.8-6.2,13.8-13.8C-844.9-1992.9-846.4-1996.3-848.9-1998.8z"/>
</g>
<g>
	<path fill="none" d="M-842.8-1963.4C-842.8-1963.4-842.8-1963.4-842.8-1963.4C-842.8-1963.4-842.8-1963.4-842.8-1963.4z"/>
	<path fill="none" d="M-832.6-1972.3C-832.6-1972.3-832.6-1972.3-832.6-1972.3C-832.6-1972.3-832.6-1972.3-832.6-1972.3z"/>
	<path fill="#FFFFFF" d="M-842.8-1963.4c1,0.6,2.2,0.9,3.5,0.9c4,0,7.2-3.2,7.2-7.2c0-0.9-0.2-1.8-0.5-2.6c0,0,0,0,0-0.1
		c-0.1-0.1-0.1-0.3-0.2-0.4c-1.2-2.4-3.6-4-6.4-4c-3.9,0-7.1,3.2-7.1,7.1c0,2.6,1.4,4.8,3.4,6.1
		C-842.9-1963.5-842.8-1963.5-842.8-1963.4C-842.8-1963.4-842.8-1963.4-842.8-1963.4z"/>
	<path fill="#323232" d="M-833.9-1974.5c0.5,0.5,0.8,1.1,1.1,1.7c0.1,0.1,0.1,0.3,0.2,0.4c0,0,0,0,0,0.1c0.3,0.8,0.5,1.7,0.5,2.6
		c0,4-3.2,7.2-7.2,7.2c-1.3,0-2.4-0.3-3.5-0.9c0,0,0,0,0,0c-0.1,0-0.1-0.1-0.2-0.1c-0.5-0.3-1-0.7-1.5-1.2c1.3,1.5,3.2,2.4,5.4,2.4
		c4,0,7.2-3.2,7.2-7.2C-831.9-1971.4-832.7-1973.2-833.9-1974.5z"/>
</g>
<linearGradient id="SVGID_3_" gradientUnits="userSpaceOnUse" x1="-233.8839" y1="-1846.8513" x2="-233.8839" y2="-1711.1345">
	<stop  offset="0" style="stop-color:#ECECEC"/>
	<stop  offset="1" style="stop-color:#A8A8A8"/>
</linearGradient>
<path fill="url(#SVGID_3_)" d="M-128.9-2121.5H-375v400h246.1c19.9,0,36.1-16.2,36.1-36.1v-327.9
	C-92.8-2105.3-108.9-2121.5-128.9-2121.5z"/>
<linearGradient id="SVGID_4_" gradientUnits="userSpaceOnUse" x1="-433.8839" y1="-1846.8513" x2="-433.8839" y2="-1711.1345">
	<stop  offset="0" style="stop-color:#464646"/>
	<stop  offset="1" style="stop-color:#323232"/>
</linearGradient>
<path fill="url(#SVGID_4_)" d="M-456.7-2121.5c-19.9,0-36.1,16.2-36.1,36.1v327.9c0,19.9,16.2,36.1,36.1,36.1h81.7v-400H-456.7z"/>
<circle opacity="0.3" fill="#CC3333" cx="-144.6" cy="-2066.8" r="20.2"/>
<circle fill="#CC3333" cx="-144.6" cy="-2066.8" r="10.1"/>
<path fill="#464646" d="M-197.5-1921.4c0,52.6-42.7,95.3-95.3,95.3c-52.6,0-95.3-42.7-95.3-95.3c0-52.6,42.7-95.3,95.3-95.3
	C-240.2-2016.7-197.5-1974.1-197.5-1921.4z"/>
<path fill="#FFFFFF" d="M-223.5-1921.4c0,38.3-31,69.3-69.3,69.3c-38.3,0-69.3-31-69.3-69.3c0-38.3,31-69.3,69.3-69.3
	C-254.5-1990.7-223.5-1959.7-223.5-1921.4z"/>
<circle fill="#323232" cx="-292.8" cy="-1921.4" r="66.2"/>
<g>
	<path fill="#323232" d="M-241.3-1968.3c10.9,12.3,17.5,28.4,17.5,46.2c0,38.4-31.1,69.6-69.6,69.6c-19.6,0-37.2-8.1-49.9-21.1
		c12.7,14.4,31.3,23.4,52,23.4c38.4,0,69.6-31.1,69.6-69.6C-221.6-1938.6-229.1-1955.7-241.3-1968.3z"/>
</g>
<polygon fill="#0E8800" points="-273.8,-1851.5 -311.9,-1851.5 -361.4,-1960.6 -323.3,-1960.6 "/>
<path fill="#16B600" d="M-202.1-2009.3c-8.3-8.5-17.8-15.9-28.2-21.8c0,0-0.1-0.1-0.1-0.1l-13.1,28.8c0,0,0.1,0.1,0.1,0.1
	l-18.9,41.7h0l-49.5,109.1h38.1l49.5-109.1h0l7.8-17.1c11.7,15.8,18.6,35.3,18.6,56.5c0,52.4-42.5,94.9-94.9,94.9
	c-52.4,0-94.9-42.5-94.9-94.9c0-52.4,42.5-94.9,94.9-94.9c7.1,0,14,0.8,20.6,2.2l13.2-29.1c-10.8-3-22.1-4.6-33.8-4.6
	c-69.8,0-126.4,56.6-126.4,126.4c0,69.8,56.6,126.4,126.4,126.4c69.8,0,126.4-56.6,126.4-126.4
	C-166.4-1955.5-180-1986.5-202.1-2009.3z"/>
<g>
	<path fill="none" d="M-363.9-1977.5C-363.9-1977.5-363.9-1977.5-363.9-1977.5C-363.9-1977.5-363.9-1977.5-363.9-1977.5z"/>
	<path fill="none" d="M-344.3-1994.7c0,0,0,0.1,0,0.1C-344.3-1994.6-344.3-1994.7-344.3-1994.7z"/>
	<path fill="#FFFFFF" d="M-363.9-1977.5c2,1.1,4.3,1.7,6.7,1.7c7.6,0,13.8-6.2,13.8-13.8c0-1.7-0.3-3.4-0.9-5c0,0,0-0.1,0-0.1
		c-0.1-0.3-0.2-0.5-0.4-0.8c-2.2-4.6-7-7.8-12.4-7.8c-7.6,0-13.8,6.2-13.8,13.8c0,5,2.6,9.3,6.6,11.7
		C-364.2-1977.7-364.1-1977.6-363.9-1977.5C-363.9-1977.5-363.9-1977.5-363.9-1977.5z"/>
	<path fill="#323232" d="M-346.8-1998.8c0.9,1,1.6,2.1,2.2,3.3c0.1,0.3,0.2,0.5,0.4,0.8c0,0,0,0.1,0,0.1c0.6,1.5,0.9,3.2,0.9,5
		c0,7.6-6.2,13.8-13.8,13.8c-2.4,0-4.7-0.6-6.7-1.7c0,0,0,0,0,0c-0.1-0.1-0.2-0.1-0.4-0.2c-1-0.6-2-1.4-2.8-2.2
		c2.5,2.9,6.2,4.7,10.4,4.7c7.6,0,13.8-6.2,13.8-13.8C-342.9-1992.9-344.4-1996.3-346.8-1998.8z"/>
</g>
<g>
	<path fill="none" d="M-340.7-1963.4C-340.7-1963.4-340.8-1963.4-340.7-1963.4C-340.8-1963.4-340.7-1963.4-340.7-1963.4z"/>
	<path fill="none" d="M-330.6-1972.3C-330.6-1972.3-330.6-1972.3-330.6-1972.3C-330.6-1972.3-330.6-1972.3-330.6-1972.3z"/>
	<path fill="#FFFFFF" d="M-340.7-1963.4c1,0.6,2.2,0.9,3.5,0.9c4,0,7.2-3.2,7.2-7.2c0-0.9-0.2-1.8-0.5-2.6c0,0,0,0,0-0.1
		c-0.1-0.1-0.1-0.3-0.2-0.4c-1.2-2.4-3.6-4-6.4-4c-3.9,0-7.1,3.2-7.1,7.1c0,2.6,1.4,4.8,3.4,6.1
		C-340.9-1963.5-340.8-1963.5-340.7-1963.4C-340.8-1963.4-340.7-1963.4-340.7-1963.4z"/>
	<path fill="#323232" d="M-331.9-1974.5c0.5,0.5,0.8,1.1,1.1,1.7c0.1,0.1,0.1,0.3,0.2,0.4c0,0,0,0,0,0.1c0.3,0.8,0.5,1.7,0.5,2.6
		c0,4-3.2,7.2-7.2,7.2c-1.3,0-2.4-0.3-3.5-0.9c0,0,0,0,0,0c-0.1,0-0.1-0.1-0.2-0.1c-0.5-0.3-1-0.7-1.5-1.2c1.3,1.5,3.2,2.4,5.4,2.4
		c4,0,7.2-3.2,7.2-7.2C-329.9-1971.4-330.6-1973.2-331.9-1974.5z"/>
</g>
<g>
	<g>
		<path fill="#323232" d="M-208.8-1551c-52.4,0-94.9,42.5-94.9,94.9c0,42.5,27.9,78.4,66.3,90.5l9.5-21l-49.5-109h38.1l30.4,67
			l49.4-109.1c-8.7-5.3-18.4-9.2-28.6-11.5l-0.1,0.3C-194.8-1550.2-201.7-1551-208.8-1551z"/>
		<path fill="#323232" d="M-237.4-1365.5c9,2.9,18.7,4.4,28.6,4.4c52.4,0,94.9-42.5,94.9-94.9c0-21.2-6.9-40.7-18.6-56.5l-7.8,17.1
			h0l-49.5,109.1h-38.1l-0.1-0.2L-237.4-1365.5z"/>
		<path fill="#323232" d="M-208.8-1428.3l30.5-67.2h0l18.9-41.7c0,0-0.1-0.1-0.1-0.1l0.1-0.3c0,0,0,0-0.1,0l-49.4,109.1
			L-208.8-1428.3z"/>
		<polygon fill="#323232" points="-239.3,-1495.4 -277.4,-1495.4 -227.9,-1386.5 -227.9,-1386.3 -208.8,-1428.3 -208.9,-1428.5 		
			"/>
		<path fill="#323232" d="M-118.1-1544.1c-8.3-8.5-17.8-15.9-28.2-21.8c0,0-0.1-0.1-0.1-0.1l-12.9,28.5l-0.1,0.3
			c0,0,0.1,0.1,0.1,0.1l-18.9,41.7h0l-30.5,67.2l-19.1,42h38.1l49.5-109.1h0l7.8-17.1c11.7,15.8,18.6,35.3,18.6,56.5
			c0,52.4-42.5,94.9-94.9,94.9c-10,0-19.6-1.5-28.6-4.4c-38.4-12.1-66.3-48.1-66.3-90.5c0-52.4,42.5-94.9,94.9-94.9
			c7.1,0,14,0.8,20.6,2.2l0.1-0.3l13.1-28.8c-10.8-3-22.1-4.6-33.8-4.6c-69.8,0-126.4,56.6-126.4,126.4
			c0,69.8,56.6,126.4,126.4,126.4c69.8,0,126.4-56.6,126.4-126.4C-82.4-1490.3-96-1521.4-118.1-1544.1z"/>
	</g>
	<g>
		<g>
			<path fill="#444444" d="M-210.8-1553c-52.4,0-94.9,42.5-94.9,94.9c0,42.5,27.9,78.4,66.3,90.5l9.5-21l-49.5-109h38.1l30.4,67
				l49.4-109.1c-8.7-5.3-18.4-9.2-28.6-11.5l-0.1,0.3C-196.8-1552.2-203.7-1553-210.8-1553z"/>
			<path fill="#323232" d="M-239.4-1367.5c9,2.9,18.7,4.4,28.6,4.4c52.4,0,94.9-42.5,94.9-94.9c0-21.2-6.9-40.7-18.6-56.5l-7.8,17.1
				h0l-49.5,109.1h-38.1l-0.1-0.2L-239.4-1367.5z"/>
			<path fill="#323232" d="M-210.8-1430.3l30.5-67.2h0l18.9-41.7c0,0-0.1-0.1-0.1-0.1l0.1-0.3c0,0,0,0-0.1,0l-49.4,109.1
				L-210.8-1430.3z"/>
			<polygon fill="#0E8800" points="-241.3,-1497.4 -279.4,-1497.4 -229.9,-1388.5 -229.9,-1388.3 -210.8,-1430.3 -210.9,-1430.5 			
				"/>
			<path fill="#16B600" d="M-120.1-1546.1c-8.3-8.5-17.8-15.9-28.2-21.8c0,0-0.1-0.1-0.1-0.1l-12.9,28.5l-0.1,0.3
				c0,0,0.1,0.1,0.1,0.1l-18.9,41.7h0l-30.5,67.2l-19.1,42h38.1l49.5-109.1h0l7.8-17.1c11.7,15.8,18.6,35.3,18.6,56.5
				c0,52.4-42.5,94.9-94.9,94.9c-10,0-19.6-1.5-28.6-4.4c-38.4-12.1-66.3-48.1-66.3-90.5c0-52.4,42.5-94.9,94.9-94.9
				c7.1,0,14,0.8,20.6,2.2l0.1-0.3l13.1-28.8c-10.8-3-22.1-4.6-33.8-4.6c-69.8,0-126.4,56.6-126.4,126.4
				c0,69.8,56.6,126.4,126.4,126.4c69.8,0,126.4-56.6,126.4-126.4C-84.4-1492.3-98-1523.4-120.1-1546.1z"/>
		</g>
	</g>
</g>
<path fill="#CBCBCB" d="M-1841.8-529.7l-88.2,196.9v26.8c0,19.9,16.2,36.1,36.1,36.1h202.8l50.5-110.6"/>
<path fill="#444444" d="M-1730-565.3c-52.6,0-95.3,42.7-95.3,95.3c0,42.6,28,78.7,66.5,90.9l78.1-172.4
	C-1695-560.3-1711.9-565.3-1730-565.3z"/>
<path fill="#323232" d="M-1680.7-551.5l-78.1,172.4c9.1,2.9,18.7,4.4,28.8,4.4c52.6,0,95.3-42.7,95.3-95.3
	C-1634.7-504.6-1653.1-534.8-1680.7-551.5z"/>
<polygon fill="#0E8800" points="-1711,-400.3 -1749.1,-400.3 -1798.6,-509.4 -1760.5,-509.4 "/>
<path fill="#16B600" d="M-1639.3-558.1c-8.3-8.5-17.8-15.9-28.2-21.8c0,0-0.1-0.1-0.1-0.1l-13.1,28.8c0,0,0.1,0.1,0.1,0.1
	l-18.9,41.7h0l-49.5,109.1h38.1l49.5-109.1h0l7.8-17.1c11.7,15.8,18.6,35.3,18.6,56.5c0,52.4-42.5,94.9-94.9,94.9
	c-52.4,0-94.9-42.5-94.9-94.9c0-52.4,42.5-94.9,94.9-94.9c7.1,0,14,0.8,20.6,2.2l13.2-29.1c-10.8-3-22.1-4.6-33.8-4.6
	c-69.8,0-126.4,56.6-126.4,126.4c0,69.8,56.6,126.4,126.4,126.4c69.8,0,126.4-56.6,126.4-126.4
	C-1603.6-504.3-1617.2-535.3-1639.3-558.1z"/>
<circle opacity="0.3" fill="#CC3333" cx="-1581.8" cy="-615.8" r="20.2"/>
<circle fill="#CC3333" cx="-1581.8" cy="-615.8" r="12.6"/>
<g>
	<path opacity="0.7" fill="#FFFFFF" d="M-899.6-1505.4c-1.5-3.3-2.3-7-2.2-10.9c0.4-13.3,11.6-23.6,24.8-23.2
		c4.3,0.1,8.3,1.4,11.8,3.6c0.4-17.2-13.1-31.5-30.3-32c-17.3-0.6-31.8,13-32.4,30.3C-928.5-1521-916-1507-899.6-1505.4z"/>
</g>
<circle fill="#FFFFFF" cx="-877.8" cy="-1515.5" r="22.4"/>
<circle opacity="0.3" fill="#CC3333" cx="-646.6" cy="-1603.9" r="20.2"/>
<circle fill="#CC3333" cx="-646.6" cy="-1603.9" r="12.6"/>
<circle opacity="0.3" fill="#CC3333" cx="-62.6" cy="-1603.9" r="20.2"/>
<circle fill="#CC3333" cx="-62.6" cy="-1603.9" r="12.6"/>
<g>
	<path opacity="0.7" fill="#FFFFFF" d="M-1819.9-525.6c-1.1-2.4-1.7-5-1.6-7.8c0.3-9.5,8.3-17,17.8-16.7c3.1,0.1,6,1,8.5,2.6
		c0.3-12.3-9.4-22.6-21.8-23c-12.4-0.4-22.9,9.3-23.3,21.8C-1840.6-536.8-1831.6-526.7-1819.9-525.6z"/>
</g>
<circle fill="#FFFFFF" cx="-1804.2" cy="-532.8" r="16.1"/>
<circle fill="#909090" cx="-1003.1" cy="-774.4" r="20.2"/>
<circle fill="#313131" cx="-1003.1" cy="-774.4" r="12.6"/>
<g>
	<path opacity="0.7" fill="#FFFFFF" d="M-319.6-1505.4c-1.5-3.3-2.3-7-2.2-10.9c0.4-13.3,11.6-23.6,24.8-23.2
		c4.3,0.1,8.3,1.4,11.8,3.6c0.4-17.2-13.1-31.5-30.3-32c-17.3-0.6-31.8,13-32.4,30.3C-348.5-1521-336-1507-319.6-1505.4z"/>
</g>
<circle fill="#FFFFFF" cx="-297.8" cy="-1515.5" r="22.4"/>
<path fill="#383838" d="M-1880.2-604.8c0,5,4,9,9,9h22c5,0,9-4,9-9v-22c0-5-4-9-9-9h-22c-5,0-9,4-9,9V-604.8z"/>
<polygon fill="#0E8800" points="-1131,-400.3 -1169.1,-400.3 -1218.6,-509.4 -1180.5,-509.4 "/>
<path fill="#16B600" d="M-1059.3-558.1c-8.3-8.5-17.8-15.9-28.2-21.8c0,0-0.1-0.1-0.1-0.1l-13.1,28.8c0,0,0.1,0.1,0.1,0.1
	l-18.9,41.7h0l-49.5,109.1h38.1l49.5-109.1h0l7.8-17.1c11.7,15.8,18.6,35.3,18.6,56.5c0,52.4-42.5,94.9-94.9,94.9
	c-52.4,0-94.9-42.5-94.9-94.9c0-52.4,42.5-94.9,94.9-94.9c7.1,0,14,0.8,20.6,2.2l13.2-29.1c-10.8-3-22.1-4.6-33.8-4.6
	c-69.8,0-126.4,56.6-126.4,126.4c0,69.8,56.6,126.4,126.4,126.4c69.8,0,126.4-56.6,126.4-126.4
	C-1023.6-504.3-1037.2-535.3-1059.3-558.1z"/>
<g>
	<path opacity="0.7" fill="#FFFFFF" d="M-1239.9-525.6c-1.1-2.4-1.7-5-1.6-7.8c0.3-9.5,8.3-17,17.8-16.7c3.1,0.1,6,1,8.5,2.6
		c0.3-12.3-9.4-22.6-21.8-23c-12.4-0.4-22.9,9.3-23.3,21.8C-1260.6-536.8-1251.6-526.7-1239.9-525.6z"/>
</g>
<circle opacity="0.8" fill="#FFFFFF" cx="-1224.2" cy="-532.8" r="16.1"/>
<path fill="#CBCBCB" d="M-1095-750.2c0,5.2,4.2,9.4,9.4,9.4h23c5.2,0,9.4-4.2,9.4-9.4v-23c0-5.2-4.2-9.4-9.4-9.4h-23
	c-5.2,0-9.4,4.2-9.4,9.4V-750.2z"/>
<path fill="#464646" d="M-1087.3-754.4c0,3.3,2.6,6,5.9,6h14.4c3.3,0,5.9-2.7,5.9-6V-769c0-3.3-2.6-6-5.9-6h-14.4
	c-3.3,0-5.9,2.7-5.9,6V-754.4z"/>
<path fill="#909090" d="M-971-754.5c0,5.2,4.2,9.4,9.4,9.4h23c5.2,0,9.4-4.2,9.4-9.4v-23c0-5.2-4.2-9.4-9.4-9.4h-23
	c-5.2,0-9.4,4.2-9.4,9.4V-754.5z"/>
<path fill="#313131" d="M-963.2-758.7c0,3.3,2.6,6,5.9,6h14.4c3.3,0,5.9-2.7,5.9-6v-14.7c0-3.3-2.6-6-5.9-6h-14.4
	c-3.3,0-5.9,2.7-5.9,6V-758.7z"/>
<path fill="#909090" d="M-1031-603.1c0,5.6,4.5,10.1,10.1,10.1h24.7c5.6,0,10.1-4.5,10.1-10.1v-24.7c0-5.6-4.5-10.1-10.1-10.1h-24.7
	c-5.6,0-10.1,4.5-10.1,10.1V-603.1z"/>
<path fill="#CBCBCB" d="M-1031-599.9c0,5.6,4.5,10.1,10.1,10.1h24.7c5.6,0,10.1-4.5,10.1-10.1v-24.7c0-5.6-4.5-10.1-10.1-10.1h-24.7
	c-5.6,0-10.1,4.5-10.1,10.1V-599.9z"/>
<path fill="#464646" d="M-1022.7-604.4c0,3.6,2.8,6.4,6.3,6.4h15.5c3.5,0,6.3-2.9,6.3-6.4v-15.8c0-3.6-2.8-6.4-6.3-6.4h-15.5
	c-3.5,0-6.3,2.9-6.3,6.4V-604.4z"/>
<g>
	<g opacity="0.9">
		<path fill="#B7B7B7" d="M-1350,296.9c0,19.9,16.2,36.1,36.1,36.1h327.9c19.9,0,36.1-16.2,36.1-36.1V-30.9
			c0-19.9-16.1-36.1-36.1-36.1h-327.9c-19.9,0-36.1,16.2-36.1,36.1V296.9z"/>
		<path opacity="0.39" fill="#B7B7B7" d="M-1350,296.9c0,19.9,16.2,36.1,36.1,36.1h327.9c19.9,0,36.1-16.2,36.1-36.1V-30.9
			c0-19.9-16.1-36.1-36.1-36.1h-327.9c-19.9,0-36.1,16.2-36.1,36.1V296.9z"/>
	</g>
	<g>
		<path fill="#E0E0E0" d="M-1350,289.9c0,19.9,16.2,36.1,36.1,36.1h327.9c19.9,0,36.1-16.2,36.1-36.1V-37.9
			c0-19.9-16.1-36.1-36.1-36.1h-327.9c-19.9,0-36.1,16.2-36.1,36.1V289.9z"/>
		<radialGradient id="SVGID_5_" cx="-1150" cy="126.0087" r="200" gradientUnits="userSpaceOnUse">
			<stop  offset="0.6713" style="stop-color:#130C0E;stop-opacity:0"/>
			<stop  offset="0.8792" style="stop-color:#130C0E;stop-opacity:0.1"/>
			<stop  offset="0.9708" style="stop-color:#130C0E;stop-opacity:0.19"/>
		</radialGradient>
		<path opacity="0.39" fill="url(#SVGID_5_)" d="M-1350,289.9c0,19.9,16.2,36.1,36.1,36.1h327.9c19.9,0,36.1-16.2,36.1-36.1V-37.9
			c0-19.9-16.1-36.1-36.1-36.1h-327.9c-19.9,0-36.1,16.2-36.1,36.1V289.9z"/>
	</g>
</g>
<g>
	<path fill="#E0E0E0" d="M-810,307.9c0,19.9,16.2,36.1,36.1,36.1h327.9c19.9,0,36.1-16.2,36.1-36.1V-19.9c0-19.9-400-19.9-400,0
		V307.9z"/>
	<radialGradient id="SVGID_6_" cx="-610" cy="154.5741" r="194.7889" gradientUnits="userSpaceOnUse">
		<stop  offset="0.6713" style="stop-color:#130C0E;stop-opacity:0"/>
		<stop  offset="0.8792" style="stop-color:#130C0E;stop-opacity:0.1"/>
		<stop  offset="0.9708" style="stop-color:#130C0E;stop-opacity:0.19"/>
	</radialGradient>
	<path opacity="0.43" fill="url(#SVGID_6_)" d="M-810,307.9c0,19.9,16.2,36.1,36.1,36.1h327.9c19.9,0,36.1-16.2,36.1-36.1V-19.9
		c0-19.9-400-19.9-400,0V307.9z"/>
	<path fill="none" stroke="#B7B7B7" stroke-width="3" stroke-miterlimit="10" d="M-810,307.9c0,19.9,16.2,36.1,36.1,36.1h327.9
		c19.9,0,36.1-16.2,36.1-36.1V-19.9c0-19.9-400-19.9-400,0V307.9z"/>
</g>
<path fill="#CBCBCB" d="M-1261.8,66.3l-88.2,196.9v26.8c0,19.9,16.2,36.1,36.1,36.1h200.8l52.5-110.6"/>
<g>
	<path fill="#464646" d="M-1150,30.7c-52.6,0-95.3,42.7-95.3,95.3c0,42.6,28,78.7,66.5,90.9l78.1-172.4
		C-1115,35.7-1131.9,30.7-1150,30.7z"/>
	<path fill="#313131" d="M-1100.7,44.5l-78.1,172.4c9.1,2.9,18.7,4.4,28.8,4.4c52.6,0,95.3-42.7,95.3-95.3
		C-1054.7,91.4-1073.1,61.2-1100.7,44.5z"/>
	<path fill="#323232" d="M-1150,61c-35.9,0-65,29.1-65,65c0,30.3,20.8,55.8,48.8,63l52.8-116.6C-1123.7,65.2-1136.4,61-1150,61z"/>
	<path fill="#1B1B1B" d="M-1113.3,72.4l-52.8,116.6c5.2,1.3,10.6,2,16.1,2c35.9,0,65-29.1,65-65
		C-1085,103.7-1096.2,84.1-1113.3,72.4z"/>
</g>
<polygon fill="#0E8800" points="-1131,195.8 -1169.1,195.8 -1218.6,86.6 -1180.5,86.6 "/>
<path fill="#16B600" d="M-1059.3,37.9c-8.3-8.5-17.8-15.9-28.2-21.8c0,0-0.1-0.1-0.1-0.1l-13.1,28.8c0,0,0.1,0.1,0.1,0.1l-18.9,41.7
	h0l-49.5,109.1h38.1l49.5-109.1h0l7.8-17.1c11.7,15.8,18.6,35.3,18.6,56.5c0,52.4-42.5,94.9-94.9,94.9c-52.4,0-94.9-42.5-94.9-94.9
	c0-52.4,42.5-94.9,94.9-94.9c7.1,0,14,0.8,20.6,2.2l13.2-29.1c-10.8-3-22.1-4.6-33.8-4.6c-69.8,0-126.4,56.6-126.4,126.4
	c0,69.8,56.6,126.4,126.4,126.4c69.8,0,126.4-56.6,126.4-126.4C-1023.6,91.8-1037.2,60.7-1059.3,37.9z"/>
<path fill="#909090" d="M-1028-7.1c0,5.6,4.5,10.1,10.1,10.1h24.7c5.6,0,10.1-4.5,10.1-10.1v-24.7c0-5.6-4.5-10.1-10.1-10.1h-24.7
	c-5.6,0-10.1,4.5-10.1,10.1V-7.1z"/>
<path fill="#CBCBCB" d="M-1028-3.9c0,5.6,4.5,10.1,10.1,10.1h24.7c5.6,0,10.1-4.5,10.1-10.1v-24.7c0-5.6-4.5-10.1-10.1-10.1h-24.7
	c-5.6,0-10.1,4.5-10.1,10.1V-3.9z"/>
<path fill="#464646" d="M-1019.7-8.4c0,3.6,2.8,6.4,6.3,6.4h15.5c3.5,0,6.3-2.9,6.3-6.4v-15.8c0-3.6-2.8-6.4-6.3-6.4h-15.5
	c-3.5,0-6.3,2.9-6.3,6.4V-8.4z"/>
<polygon fill="#0E8800" points="-425.2,-379.3 -474.8,-379.3 -539.2,-521.2 -489.7,-521.2 "/>
<path fill="#16B600" d="M-332.1-584.5c-10.8-11.1-23.1-20.7-36.6-28.4c-0.1,0-0.1-0.1-0.2-0.1l-17,37.4c0.1,0,0.1,0.1,0.2,0.1
	l-24.6,54.2h0l-64.4,141.9h49.5l64.4-141.9h-0.1l10.1-22.2c15.2,20.5,24.2,45.9,24.2,73.4c0,68.2-55.3,123.4-123.4,123.4
	c-68.2,0-123.4-55.3-123.4-123.4c0-68.2,55.3-123.4,123.4-123.4c9.2,0,18.1,1,26.8,2.9l17.2-37.9c-14-3.9-28.7-6-44-6
	c-90.8,0-164.3,73.6-164.3,164.3c0,90.8,73.6,164.3,164.3,164.3c90.8,0,164.3-73.6,164.3-164.3
	C-285.7-514.5-303.4-554.9-332.1-584.5z"/>
<polygon fill="#FFFFFF" points="274.8,-379.3 225.2,-379.3 160.8,-521.2 210.3,-521.2 "/>
<path fill="#FFFFFF" d="M367.9-584.5c-10.8-11.1-23.1-20.7-36.6-28.4c-0.1,0-0.1-0.1-0.2-0.1l-17,37.4c0.1,0,0.1,0.1,0.2,0.1
	l-24.6,54.2h0l-64.4,141.9h49.5l64.4-141.9h-0.1l10.1-22.2c15.2,20.5,24.2,45.9,24.2,73.4c0,68.2-55.3,123.4-123.4,123.4
	c-68.2,0-123.4-55.3-123.4-123.4c0-68.2,55.3-123.4,123.4-123.4c9.2,0,18.1,1,26.8,2.9l17.2-37.9c-14-3.9-28.7-6-44-6
	c-90.8,0-164.3,73.6-164.3,164.3c0,90.8,73.6,164.3,164.3,164.3c90.8,0,164.3-73.6,164.3-164.3C414.3-514.5,396.6-554.9,367.9-584.5
	z"/>
<polygon opacity="0.5" fill="#FFFFFF" points="225.2,340.7 160.8,198.8 210.3,198.8 249.9,286 "/>
<path opacity="0.68" fill="#FFFFFF" d="M367.9,135.5c-10.8-11.1-23.1-20.7-36.6-28.4c-0.1,0-0.1-0.1-0.2-0.1l-17,37.4
	c0.1,0,0.1,0.1,0.2,0.1l-24.6,54.2h0l-64.4,141.9h49.5l64.4-141.9h-0.1l10.1-22.2c15.2,20.5,24.2,45.9,24.2,73.4
	c0,68.2-55.3,123.4-123.4,123.4c-68.2,0-123.4-55.3-123.4-123.4c0-68.2,55.3-123.4,123.4-123.4c9.2,0,18.1,1,26.8,2.9L294,91.6
	c-14-3.9-28.7-6-44-6c-90.8,0-164.3,73.6-164.3,164.3c0,90.8,73.6,164.3,164.3,164.3c90.8,0,164.3-73.6,164.3-164.3
	C414.3,205.5,396.6,165.1,367.9,135.5z"/>
<polygon fill="#313131" points="974.8,-379.3 925.2,-379.3 860.8,-521.2 910.3,-521.2 "/>
<path fill="#313131" d="M1067.9-584.5c-10.8-11.1-23.1-20.7-36.6-28.4c-0.1,0-0.1-0.1-0.2-0.1l-17,37.4c0.1,0,0.1,0.1,0.2,0.1
	l-24.6,54.2h0l-64.4,141.9h49.5l64.4-141.9h-0.1l10.1-22.2c15.2,20.5,24.2,45.9,24.2,73.4c0,68.2-55.3,123.4-123.4,123.4
	c-68.2,0-123.4-55.3-123.4-123.4c0-68.2,55.3-123.4,123.4-123.4c9.2,0,18.1,1,26.8,2.9l17.2-37.9c-14-3.9-28.7-6-44-6
	c-90.8,0-164.3,73.6-164.3,164.3c0,90.8,73.6,164.3,164.3,164.3c90.8,0,164.3-73.6,164.3-164.3
	C1114.3-514.5,1096.6-554.9,1067.9-584.5z"/>
<g id="_x30_KGjR1.tif">
	
		<image overflow="visible" width="1360" height="906" id="Layer_0_3_" xlink:href="54BA75DB55A254F3.png"  transform="matrix(1 0 0 1 -2005.6268 723.88)">
	</image>
</g>
<g>
	<polygon opacity="0.5" fill="#FFFFFF" points="-725,1567 -737.9,1538.6 -728,1538.6 -720.1,1556.1 	"/>
	<path opacity="0.68" fill="#FFFFFF" d="M-696.5,1526c-2.2-2.2-4.6-4.1-7.3-5.7c0,0,0,0,0,0l-3.4,7.5c0,0,0,0,0,0l-4.9,10.8h0
		L-725,1567h9.9l12.9-28.4h0l2-4.4c3,4.1,4.8,9.2,4.8,14.7c0,13.6-11.1,24.7-24.7,24.7c-13.6,0-24.7-11.1-24.7-24.7
		c0-13.6,11.1-24.7,24.7-24.7c1.8,0,3.6,0.2,5.4,0.6l3.4-7.6c-2.8-0.8-5.7-1.2-8.8-1.2c-18.2,0-32.9,14.7-32.9,32.9
		c0,18.2,14.7,32.9,32.9,32.9c18.2,0,32.9-14.7,32.9-32.9C-687.2,1540-690.7,1531.9-696.5,1526z"/>
</g>
</svg>
