<?xml version="1.0" encoding="utf-8"?>
<!-- Generator: Adobe Illustrator 18.1.1, SVG Export Plug-In . SVG Version: 6.00 Build 0)  -->
<svg version="1.1" id="Layer_1" xmlns="http://www.w3.org/2000/svg" xmlns:xlink="http://www.w3.org/1999/xlink" x="0px" y="0px"
	 viewBox="0 0 512 512" enable-background="new 0 0 512 512" xml:space="preserve">
<g>
	<g opacity="0.9">
		<path fill="#B7B7B7" d="M54,428.6c0,20.1,16.3,36.4,36.4,36.4h331.1c20.1,0,36.4-16.3,36.4-36.4V97.5c0-20.1-16.3-36.4-36.4-36.4
			H90.4C70.3,61,54,77.3,54,97.5V428.6z"/>
		<path opacity="0.39" fill="#B7B7B7" d="M54,428.6c0,20.1,16.3,36.4,36.4,36.4h331.1c20.1,0,36.4-16.3,36.4-36.4V97.5
			c0-20.1-16.3-36.4-36.4-36.4H90.4C70.3,61,54,77.3,54,97.5V428.6z"/>
	</g>
	<g>
		<path fill="#E0E0E0" d="M54,421.5c0,20.1,16.3,36.4,36.4,36.4h331.1c20.1,0,36.4-16.3,36.4-36.4V90.4c0-20.1-16.3-36.4-36.4-36.4
			H90.4C70.3,54,54,70.3,54,90.4V421.5z"/>
		<radialGradient id="SVGID_1_" cx="256" cy="255.964" r="202" gradientUnits="userSpaceOnUse">
			<stop  offset="0.6713" style="stop-color:#130C0E;stop-opacity:0"/>
			<stop  offset="0.8792" style="stop-color:#130C0E;stop-opacity:0.1"/>
			<stop  offset="0.9708" style="stop-color:#130C0E;stop-opacity:0.19"/>
		</radialGradient>
		<path opacity="0.39" fill="url(#SVGID_1_)" d="M54,421.5c0,20.1,16.3,36.4,36.4,36.4h331.1c20.1,0,36.4-16.3,36.4-36.4V90.4
			c0-20.1-16.3-36.4-36.4-36.4H90.4C70.3,54,54,70.3,54,90.4V421.5z"/>
	</g>
</g>
<path fill="#CBCBCB" d="M143.1,195.7L54,394.5v27.1c0,20.1,16.3,36.4,36.4,36.4h202.8l53-111.7"/>
<g>
	<path fill="#464646" d="M256,159.7c-53.2,0-96.2,43.1-96.2,96.2c0,43,28.2,79.4,67.2,91.8l78.9-174.1
		C291.3,164.8,274.2,159.7,256,159.7z"/>
	<path fill="#313131" d="M305.8,173.6l-78.9,174.1c9.2,2.9,18.9,4.5,29.1,4.5c53.2,0,96.2-43.1,96.2-96.2
		C352.2,221.1,333.7,190.5,305.8,173.6z"/>
	<path fill="#323232" d="M256,190.3c-36.2,0-65.6,29.4-65.6,65.6c0,30.6,21,56.3,49.3,63.6l53.4-117.7
		C282.5,194.6,269.8,190.3,256,190.3z"/>
	<path fill="#1B1B1B" d="M293.1,201.8l-53.4,117.7c5.2,1.3,10.7,2,16.3,2c36.2,0,65.6-29.4,65.6-65.6
		C321.6,233.5,310.3,213.6,293.1,201.8z"/>
</g>
<polygon fill="#0E8800" points="275.2,326.4 236.7,326.4 186.7,216.2 225.2,216.2 "/>
<path fill="#16B600" d="M347.6,167c-8.4-8.6-18-16.1-28.5-22.1c0,0-0.1-0.1-0.1-0.1L305.8,174c0,0,0.1,0.1,0.1,0.1l-19.1,42.1h0
	l-50,110.2h38.5l50-110.2h0l7.8-17.3c11.8,15.9,18.8,35.7,18.8,57.1c0,53-42.9,95.9-95.9,95.9c-53,0-95.9-42.9-95.9-95.9
	c0-53,42.9-95.9,95.9-95.9c7.1,0,14.1,0.8,20.8,2.3l13.4-29.4c-10.9-3-22.3-4.6-34.1-4.6c-70.5,0-127.7,57.2-127.7,127.7
	c0,70.5,57.2,127.7,127.7,127.7c70.5,0,127.7-57.2,127.7-127.7C383.7,221.4,369.9,190,347.6,167z"/>
<path fill="#909090" d="M379.2,121.5c0,5.6,4.6,10.2,10.2,10.2h25c5.6,0,10.2-4.6,10.2-10.2v-25c0-5.6-4.6-10.2-10.2-10.2h-25
	c-5.6,0-10.2,4.6-10.2,10.2V121.5z"/>
<path fill="#CBCBCB" d="M379.2,124.8c0,5.6,4.6,10.2,10.2,10.2h25c5.6,0,10.2-4.6,10.2-10.2v-25c0-5.6-4.6-10.2-10.2-10.2h-25
	c-5.6,0-10.2,4.6-10.2,10.2V124.8z"/>
<path fill="#464646" d="M387.6,120.2c0,3.6,2.9,6.5,6.4,6.5h15.7c3.5,0,6.4-2.9,6.4-6.5v-15.9c0-3.6-2.9-6.5-6.4-6.5H394
	c-3.5,0-6.4,2.9-6.4,6.5V120.2z"/>
</svg>
