<?xml version="1.0" encoding="utf-8"?>
<!-- Generator: Adobe Illustrator 15.0.0, SVG Export Plug-In . SVG Version: 6.00 Build 0)  -->
<!DOCTYPE svg PUBLIC "-//W3C//DTD SVG 1.1//EN" "http://www.w3.org/Graphics/SVG/1.1/DTD/svg11.dtd" [
	<!ENTITY ns_extend "http://ns.adobe.com/Extensibility/1.0/">
	<!ENTITY ns_ai "http://ns.adobe.com/AdobeIllustrator/10.0/">
	<!ENTITY ns_graphs "http://ns.adobe.com/Graphs/1.0/">
	<!ENTITY ns_vars "http://ns.adobe.com/Variables/1.0/">
	<!ENTITY ns_imrep "http://ns.adobe.com/ImageReplacement/1.0/">
	<!ENTITY ns_sfw "http://ns.adobe.com/SaveForWeb/1.0/">
	<!ENTITY ns_custom "http://ns.adobe.com/GenericCustomNamespace/1.0/">
	<!ENTITY ns_adobe_xpath "http://ns.adobe.com/XPath/1.0/">
]>
<svg version="1.1" id="Layer_1" xmlns:x="&ns_extend;" xmlns:i="&ns_ai;" xmlns:graph="&ns_graphs;"
	 xmlns="http://www.w3.org/2000/svg" xmlns:xlink="http://www.w3.org/1999/xlink" x="0px" y="0px" width="48px" height="48px"
	 viewBox="0 0 48 48" enable-background="new 0 0 48 48" xml:space="preserve">
<metadata>
	<sfw  xmlns="&ns_sfw;">
		<slices></slices>
		<sliceSourceBounds  x="9.046" y="8.943" width="30" height="30" bottomLeftOrigin="true"></sliceSourceBounds>
	</sfw>
</metadata>
<path fill="#D1D3D4" d="M24.546,38.619c-7.754,0-14.062-6.309-14.062-14.062c0-7.753,6.308-14.062,14.062-14.062
	s14.062,6.308,14.062,14.062C38.608,32.311,32.3,38.619,24.546,38.619z"/>
<path fill="#FFFFFF" d="M24.546,11.432c7.237,0,13.125,5.888,13.125,13.125c0,7.237-5.888,13.125-13.125,13.125
	c-7.237,0-13.125-5.888-13.125-13.125C11.421,17.32,17.309,11.432,24.546,11.432 M24.546,9.557c-8.285,0-15,6.717-15,15
	c0,8.285,6.715,15,15,15c8.284,0,15-6.715,15-15C39.546,16.274,32.83,9.557,24.546,9.557L24.546,9.557z"/>
<polygon id="check-mark-icon_1_" fill="#FFFFFF" points="31.136,17.003 21.938,26.202 17.954,22.217 15,25.171 21.939,32.112 
	34.092,19.957 "/>
</svg>
