<?xml version="1.0" encoding="utf-8"?>
<!-- Generator: Adobe Illustrator 15.0.0, SVG Export Plug-In . SVG Version: 6.00 Build 0)  -->
<!DOCTYPE svg PUBLIC "-//W3C//DTD SVG 1.1//EN" "http://www.w3.org/Graphics/SVG/1.1/DTD/svg11.dtd" [
	<!ENTITY ns_extend "http://ns.adobe.com/Extensibility/1.0/">
	<!ENTITY ns_ai "http://ns.adobe.com/AdobeIllustrator/10.0/">
	<!ENTITY ns_graphs "http://ns.adobe.com/Graphs/1.0/">
	<!ENTITY ns_vars "http://ns.adobe.com/Variables/1.0/">
	<!ENTITY ns_imrep "http://ns.adobe.com/ImageReplacement/1.0/">
	<!ENTITY ns_sfw "http://ns.adobe.com/SaveForWeb/1.0/">
	<!ENTITY ns_custom "http://ns.adobe.com/GenericCustomNamespace/1.0/">
	<!ENTITY ns_adobe_xpath "http://ns.adobe.com/XPath/1.0/">
]>
<svg version="1.1" id="Layer_1" xmlns:x="&ns_extend;" xmlns:i="&ns_ai;" xmlns:graph="&ns_graphs;"
	 xmlns="http://www.w3.org/2000/svg" xmlns:xlink="http://www.w3.org/1999/xlink" x="0px" y="0px" width="48px" height="48px"
	 viewBox="0 0 48 48" enable-background="new 0 0 48 48" xml:space="preserve">
<metadata>
	<sfw  xmlns="&ns_sfw;">
		<slices></slices>
		<sliceSourceBounds  x="9.045" y="9.5" width="30" height="30" bottomLeftOrigin="true"></sliceSourceBounds>
	</sfw>
</metadata>
<path fill="#00AEEF" d="M24.545,38.062c-7.753,0-14.062-6.309-14.062-14.062S16.792,9.938,24.545,9.938
	c7.754,0,14.062,6.308,14.062,14.062S32.299,38.062,24.545,38.062z"/>
<path fill="#FFFFFF" d="M24.545,10.875c7.237,0,13.125,5.888,13.125,13.125c0,7.236-5.888,13.125-13.125,13.125
	c-7.236,0-13.125-5.889-13.125-13.125C11.42,16.763,17.309,10.875,24.545,10.875 M24.545,9c-8.285,0-15,6.716-15,15s6.715,15,15,15
	c8.285,0,15-6.716,15-15S32.83,9,24.545,9L24.545,9z"/>
<polygon id="check-mark-icon_1_" fill="#FFFFFF" points="31.135,16.446 21.938,25.645 17.954,21.659 15,24.614 21.938,31.555 
	34.092,19.399 "/>
</svg>
