<?xml version="1.0" encoding="utf-8"?>
<!-- Generator: Adobe Illustrator 15.0.0, SVG Export Plug-In . SVG Version: 6.00 Build 0)  -->
<!DOCTYPE svg PUBLIC "-//W3C//DTD SVG 1.1//EN" "http://www.w3.org/Graphics/SVG/1.1/DTD/svg11.dtd" [
	<!ENTITY ns_extend "http://ns.adobe.com/Extensibility/1.0/">
	<!ENTITY ns_ai "http://ns.adobe.com/AdobeIllustrator/10.0/">
	<!ENTITY ns_graphs "http://ns.adobe.com/Graphs/1.0/">
	<!ENTITY ns_vars "http://ns.adobe.com/Variables/1.0/">
	<!ENTITY ns_imrep "http://ns.adobe.com/ImageReplacement/1.0/">
	<!ENTITY ns_sfw "http://ns.adobe.com/SaveForWeb/1.0/">
	<!ENTITY ns_custom "http://ns.adobe.com/GenericCustomNamespace/1.0/">
	<!ENTITY ns_adobe_xpath "http://ns.adobe.com/XPath/1.0/">
]>
<svg version="1.1" id="Layer_1" xmlns:x="&ns_extend;" xmlns:i="&ns_ai;" xmlns:graph="&ns_graphs;"
	 xmlns="http://www.w3.org/2000/svg" xmlns:xlink="http://www.w3.org/1999/xlink" x="0px" y="0px" width="48px" height="48px"
	 viewBox="0 0 48 48" enable-background="new 0 0 48 48" xml:space="preserve">
<metadata>
	<sfw  xmlns="&ns_sfw;">
		<slices></slices>
		<sliceSourceBounds  x="9.208" y="9.496" width="28.582" height="30.01" bottomLeftOrigin="true"></sliceSourceBounds>
	</sfw>
</metadata>
<path opacity="0.8" fill="#6D6E71" enable-background="new    " d="M33.602,29.646c-1.415,0-2.68,0.629-3.542,1.621l-11.155-6.002
	c0.113-0.402,0.18-0.827,0.18-1.269c0-0.438-0.066-0.864-0.18-1.263l11.154-6.006c0.861,0.994,2.127,1.626,3.542,1.626
	c2.587,0,4.688-2.101,4.688-4.676c0.002-2.579-2.102-4.683-4.688-4.683c-2.587,0-4.686,2.104-4.686,4.685
	c0,0.44,0.062,0.864,0.178,1.268l-11.16,5.992c-0.859-0.988-2.125-1.613-3.54-1.613c-2.583,0-4.685,2.087-4.685,4.671
	c0,2.588,2.102,4.672,4.685,4.672c1.415,0,2.681-0.625,3.543-1.612l11.157,5.996c-0.115,0.403-0.178,0.823-0.178,1.265
	c0,2.586,2.099,4.686,4.686,4.686c2.586,0,4.689-2.1,4.689-4.686C38.291,31.744,36.188,29.646,33.602,29.646z"/>
</svg>
