<?xml version="1.0" encoding="utf-8"?>
<!-- Generator: Adobe Illustrator 15.0.0, SVG Export Plug-In . SVG Version: 6.00 Build 0)  -->
<!DOCTYPE svg PUBLIC "-//W3C//DTD SVG 1.1//EN" "http://www.w3.org/Graphics/SVG/1.1/DTD/svg11.dtd" [
	<!ENTITY ns_extend "http://ns.adobe.com/Extensibility/1.0/">
	<!ENTITY ns_ai "http://ns.adobe.com/AdobeIllustrator/10.0/">
	<!ENTITY ns_graphs "http://ns.adobe.com/Graphs/1.0/">
	<!ENTITY ns_vars "http://ns.adobe.com/Variables/1.0/">
	<!ENTITY ns_imrep "http://ns.adobe.com/ImageReplacement/1.0/">
	<!ENTITY ns_sfw "http://ns.adobe.com/SaveForWeb/1.0/">
	<!ENTITY ns_custom "http://ns.adobe.com/GenericCustomNamespace/1.0/">
	<!ENTITY ns_adobe_xpath "http://ns.adobe.com/XPath/1.0/">
]>
<svg version="1.1" id="Layer_1" xmlns:x="&ns_extend;" xmlns:i="&ns_ai;" xmlns:graph="&ns_graphs;"
	 xmlns="http://www.w3.org/2000/svg" xmlns:xlink="http://www.w3.org/1999/xlink" x="0px" y="0px" width="48px" height="48px"
	 viewBox="0 0 48 48" enable-background="new 0 0 48 48" xml:space="preserve">
<metadata>
	<sfw  xmlns="&ns_sfw;">
		<slices></slices>
		<sliceSourceBounds  x="7.225" y="8.226" width="32.551" height="32.549" bottomLeftOrigin="true"></sliceSourceBounds>
	</sfw>
</metadata>
<path id="gear-3-icon_1_" fill="#A7A9AC" d="M40.275,21.005h-2.039c-0.441,0-2.039-0.278-2.63-1.858
	c-0.588-1.579,0.24-2.736,0.587-3.084c0.245-0.244,1.443-1.44,1.443-1.44l-4.256-4.258c0,0-1.131,1.129-1.444,1.441
	c-0.312,0.312-1.621,1.251-3.153,0.551c-1.533-0.701-1.752-2.102-1.752-2.592c0-0.491,0-2.04,0-2.04h-6.085c0,0,0,1.595,0,2.038
	s-0.247,2.039-1.827,2.629c-1.578,0.59-2.719-0.238-3.065-0.586c-0.001,0-1.437-1.443-1.437-1.443l-4.274,4.256l1.433,1.451
	c0.452,0.455,1.253,1.626,0.555,3.156c-0.699,1.527-2.084,1.729-2.577,1.729c-0.001,0.002-2.029,0-2.029,0v6.137
	c0,0,1.596,0,2.038,0c0.443,0,2.02,0.232,2.607,1.812c0.589,1.577-0.213,2.661-0.587,3.032l-1.44,1.453l4.273,4.248
	c0,0,1.132-1.129,1.445-1.441c0.312-0.312,1.61-1.25,3.145-0.551c1.533,0.699,1.739,2.1,1.739,2.59c0,0.492,0,2.039,0,2.039h6.086
	c0,0,0-1.594,0-2.037c0-0.445,0.258-2.041,1.838-2.629c1.578-0.59,2.726,0.238,3.071,0.586l0,0l1.44,1.443l4.265-4.258l-1.433-1.439
	c-0.311-0.319-1.254-1.637-0.557-3.166c0.698-1.528,2.088-1.73,2.582-1.73h2.035v-6.038H40.275z M24,32.109
	c-4.48,0-8.112-3.631-8.112-8.109c0-4.478,3.632-8.111,8.112-8.111c4.479,0,8.108,3.633,8.108,8.111
	C32.108,28.479,28.479,32.109,24,32.109z"/>
</svg>
