<?xml version="1.0" encoding="utf-8"?>
<!-- Generator: Adobe Illustrator 15.0.0, SVG Export Plug-In . SVG Version: 6.00 Build 0)  -->
<!DOCTYPE svg PUBLIC "-//W3C//DTD SVG 1.1//EN" "http://www.w3.org/Graphics/SVG/1.1/DTD/svg11.dtd" [
	<!ENTITY ns_extend "http://ns.adobe.com/Extensibility/1.0/">
	<!ENTITY ns_ai "http://ns.adobe.com/AdobeIllustrator/10.0/">
	<!ENTITY ns_graphs "http://ns.adobe.com/Graphs/1.0/">
	<!ENTITY ns_vars "http://ns.adobe.com/Variables/1.0/">
	<!ENTITY ns_imrep "http://ns.adobe.com/ImageReplacement/1.0/">
	<!ENTITY ns_sfw "http://ns.adobe.com/SaveForWeb/1.0/">
	<!ENTITY ns_custom "http://ns.adobe.com/GenericCustomNamespace/1.0/">
	<!ENTITY ns_adobe_xpath "http://ns.adobe.com/XPath/1.0/">
]>
<svg version="1.1" id="Layer_1" xmlns:x="&ns_extend;" xmlns:i="&ns_ai;" xmlns:graph="&ns_graphs;"
	 xmlns="http://www.w3.org/2000/svg" xmlns:xlink="http://www.w3.org/1999/xlink" x="0px" y="0px" width="48px" height="48px"
	 viewBox="0 0 48 48" enable-background="new 0 0 48 48" xml:space="preserve">
<metadata>
	<sfw  xmlns="&ns_sfw;">
		<slices></slices>
		<sliceSourceBounds  x="135.699" y="282.7" width="47.603" height="47.6" bottomLeftOrigin="true"></sliceSourceBounds>
	</sfw>
</metadata>
<path id="danger-3-icon_1_" fill="#EFEFEF" d="M26.848,19.271l4.292-7.439c4.269,2.474,7.143,7.085,7.143,12.37h-8.586
	C29.696,22.098,28.546,20.258,26.848,19.271z M21.149,29.133l-4.292,7.438c2.103,1.213,4.539,1.91,7.146,1.91
	c2.601,0,5.039-0.697,7.137-1.91l-4.287-7.438C25.124,30.131,22.951,30.175,21.149,29.133z M21.152,19.271l-4.295-7.439
	c-4.266,2.474-7.138,7.085-7.138,12.37h8.581C18.301,22.098,19.451,20.258,21.152,19.271z M23.999,27.473
	c1.808,0,3.271-1.468,3.271-3.273c0-1.809-1.463-3.271-3.271-3.271s-3.273,1.462-3.273,3.271
	C20.726,26.007,22.191,27.473,23.999,27.473z M47.802,24c0,13.145-10.654,23.8-23.803,23.8c-13.145,0-23.8-10.655-23.8-23.8
	c0-13.146,10.655-23.8,23.8-23.8C37.147,0.2,47.802,10.854,47.802,24z M43.178,24c0-10.601-8.579-19.18-19.179-19.18
	C13.397,4.82,4.822,13.402,4.822,24c0,10.604,8.579,19.179,19.177,19.179C34.599,43.179,43.178,34.599,43.178,24z"/>
</svg>
