<?xml version="1.0" encoding="utf-8"?>
<!-- Generator: Adobe Illustrator 15.0.0, SVG Export Plug-In . SVG Version: 6.00 Build 0)  -->
<!DOCTYPE svg PUBLIC "-//W3C//DTD SVG 1.1//EN" "http://www.w3.org/Graphics/SVG/1.1/DTD/svg11.dtd" [
	<!ENTITY ns_extend "http://ns.adobe.com/Extensibility/1.0/">
	<!ENTITY ns_ai "http://ns.adobe.com/AdobeIllustrator/10.0/">
	<!ENTITY ns_graphs "http://ns.adobe.com/Graphs/1.0/">
	<!ENTITY ns_vars "http://ns.adobe.com/Variables/1.0/">
	<!ENTITY ns_imrep "http://ns.adobe.com/ImageReplacement/1.0/">
	<!ENTITY ns_sfw "http://ns.adobe.com/SaveForWeb/1.0/">
	<!ENTITY ns_custom "http://ns.adobe.com/GenericCustomNamespace/1.0/">
	<!ENTITY ns_adobe_xpath "http://ns.adobe.com/XPath/1.0/">
]>
<svg version="1.1" id="Layer_1" xmlns:x="&ns_extend;" xmlns:i="&ns_ai;" xmlns:graph="&ns_graphs;"
	 xmlns="http://www.w3.org/2000/svg" xmlns:xlink="http://www.w3.org/1999/xlink" x="0px" y="0px" width="48px" height="48px"
	 viewBox="0 0 48 48" enable-background="new 0 0 48 48" xml:space="preserve">
<metadata>
	<sfw  xmlns="&ns_sfw;">
		<slices></slices>
		<sliceSourceBounds  x="136.063" y="283.066" width="46.872" height="46.867" bottomLeftOrigin="true"></sliceSourceBounds>
	</sfw>
</metadata>
<path id="gear-3-icon_1_" fill="#EFEFEF" d="M47.436,19.688H44.5c-0.634,0-2.936-0.4-3.788-2.676
	c-0.847-2.273,0.347-3.939,0.847-4.439c0.352-0.352,2.078-2.075,2.078-2.075l-6.129-6.131c0,0-1.629,1.625-2.079,2.075
	c-0.45,0.449-2.334,1.801-4.54,0.793c-2.208-1.009-2.524-3.026-2.524-3.732c0-0.707,0-2.937,0-2.937h-8.762c0,0,0,2.296,0,2.934
	c0,0.639-0.355,2.935-2.63,3.785c-2.273,0.85-3.916-0.343-4.414-0.843c-0.001,0-2.069-2.079-2.069-2.079l-6.155,6.129l2.063,2.089
	c0.65,0.656,1.804,2.342,0.8,4.545c-1.007,2.199-3.001,2.49-3.712,2.49c-0.001,0.002-2.922,0-2.922,0v8.836c0,0,2.298,0,2.934,0
	c0.639,0,2.91,0.334,3.755,2.61c0.848,2.271-0.307,3.831-0.845,4.366L4.332,37.52l6.154,6.118c0,0,1.63-1.625,2.08-2.075
	c0.449-0.449,2.317-1.8,4.528-0.792c2.207,1.008,2.503,3.024,2.503,3.729c0,0.709,0,2.935,0,2.935h8.765c0,0,0-2.294,0-2.933
	c0-0.64,0.373-2.938,2.647-3.785c2.272-0.848,3.925,0.344,4.421,0.844l0,0l2.076,2.078l6.141-6.131l-2.064-2.073
	c-0.447-0.46-1.805-2.358-0.804-4.559c1.009-2.201,3.01-2.491,3.72-2.491h2.93v-8.694L47.436,19.688L47.436,19.688z M24.001,35.677
	c-6.451,0-11.681-5.227-11.681-11.675c0-6.449,5.229-11.68,11.681-11.68c6.448,0,11.674,5.23,11.674,11.68
	C35.675,30.45,30.449,35.677,24.001,35.677z"/>
</svg>
