<?xml version="1.0" encoding="utf-8"?>
<!-- Generator: Adobe Illustrator 15.0.0, SVG Export Plug-In . SVG Version: 6.00 Build 0)  -->
<!DOCTYPE svg PUBLIC "-//W3C//DTD SVG 1.1//EN" "http://www.w3.org/Graphics/SVG/1.1/DTD/svg11.dtd" [
	<!ENTITY ns_extend "http://ns.adobe.com/Extensibility/1.0/">
	<!ENTITY ns_ai "http://ns.adobe.com/AdobeIllustrator/10.0/">
	<!ENTITY ns_graphs "http://ns.adobe.com/Graphs/1.0/">
	<!ENTITY ns_vars "http://ns.adobe.com/Variables/1.0/">
	<!ENTITY ns_imrep "http://ns.adobe.com/ImageReplacement/1.0/">
	<!ENTITY ns_sfw "http://ns.adobe.com/SaveForWeb/1.0/">
	<!ENTITY ns_custom "http://ns.adobe.com/GenericCustomNamespace/1.0/">
	<!ENTITY ns_adobe_xpath "http://ns.adobe.com/XPath/1.0/">
]>
<svg version="1.1" id="Layer_1" xmlns:x="&ns_extend;" xmlns:i="&ns_ai;" xmlns:graph="&ns_graphs;"
	 xmlns="http://www.w3.org/2000/svg" xmlns:xlink="http://www.w3.org/1999/xlink" x="0px" y="0px" width="48px" height="48px"
	 viewBox="0 0 48 48" enable-background="new 0 0 48 48" xml:space="preserve">
<metadata>
	<sfw  xmlns="&ns_sfw;">
		<slices></slices>
		<sliceSourceBounds  x="6.499" y="7.5" width="34.002" height="34" bottomLeftOrigin="true"></sliceSourceBounds>
	</sfw>
</metadata>
<path id="danger-3-icon_1_" fill="#A7A9AC" d="M26.034,20.622l3.065-5.314c3.05,1.767,5.102,5.061,5.102,8.836h-6.133
	C28.068,22.641,27.247,21.327,26.034,20.622z M21.964,27.666l-3.066,5.312c1.502,0.867,3.242,1.365,5.104,1.365
	c1.857,0,3.6-0.498,5.098-1.365l-3.063-5.312C24.803,28.379,23.251,28.41,21.964,27.666z M21.966,20.622l-3.068-5.314
	c-3.047,1.767-5.098,5.061-5.098,8.836h6.129C19.929,22.641,20.751,21.327,21.966,20.622z M23.999,26.48
	c1.291,0,2.336-1.048,2.336-2.338c0-1.292-1.045-2.336-2.336-2.336s-2.338,1.044-2.338,2.336
	C21.661,25.434,22.708,26.48,23.999,26.48z M41.001,24c0,9.388-7.611,17-17.002,17c-9.389,0-17-7.611-17-17c0-9.39,7.611-17,17-17
	C33.39,7,41.001,14.61,41.001,24z M37.698,24c0-7.572-6.127-13.7-13.699-13.7c-7.572,0-13.697,6.13-13.697,13.7
	c0,7.574,6.127,13.699,13.697,13.699C31.571,37.699,37.698,31.57,37.698,24z"/>
</svg>
