<?xml version="1.0" encoding="utf-8"?>
<!-- Generator: Adobe Illustrator 15.0.0, SVG Export Plug-In . SVG Version: 6.00 Build 0)  -->
<!DOCTYPE svg PUBLIC "-//W3C//DTD SVG 1.1//EN" "http://www.w3.org/Graphics/SVG/1.1/DTD/svg11.dtd" [
	<!ENTITY ns_extend "http://ns.adobe.com/Extensibility/1.0/">
	<!ENTITY ns_ai "http://ns.adobe.com/AdobeIllustrator/10.0/">
	<!ENTITY ns_graphs "http://ns.adobe.com/Graphs/1.0/">
	<!ENTITY ns_vars "http://ns.adobe.com/Variables/1.0/">
	<!ENTITY ns_imrep "http://ns.adobe.com/ImageReplacement/1.0/">
	<!ENTITY ns_sfw "http://ns.adobe.com/SaveForWeb/1.0/">
	<!ENTITY ns_custom "http://ns.adobe.com/GenericCustomNamespace/1.0/">
	<!ENTITY ns_adobe_xpath "http://ns.adobe.com/XPath/1.0/">
]>
<svg version="1.1" id="Layer_1" xmlns:x="&ns_extend;" xmlns:i="&ns_ai;" xmlns:graph="&ns_graphs;"
	 xmlns="http://www.w3.org/2000/svg" xmlns:xlink="http://www.w3.org/1999/xlink" x="0px" y="0px" width="48px" height="48px"
	 viewBox="0 0 48 48" enable-background="new 0 0 48 48" xml:space="preserve">
<metadata>
	<sfw  xmlns="&ns_sfw;">
		<slices></slices>
		<sliceSourceBounds  x="11.34" y="6.834" width="23.679" height="35.331" bottomLeftOrigin="true"></sliceSourceBounds>
	</sfw>
</metadata>
<path id="microphone-3-icon_1_" opacity="0.8" fill="#6D6E71" enable-background="new    " d="M17.846,22.633V12.168
	c0-3.221,2.611-5.834,5.833-5.834s5.833,2.613,5.833,5.834v10.465c0,3.223-2.611,5.833-5.833,5.833S17.846,25.855,17.846,22.633z
	 M32.088,19.631v3.002c0,4.637-3.771,8.408-8.409,8.408c-4.636,0-8.408-3.771-8.408-8.408v-3.002H11.84v3.002
	c0,5.873,4.295,10.759,9.908,11.681v3.918h-4.933v3.434h13.728v-3.434h-4.934v-3.918c5.614-0.924,9.91-5.809,9.91-11.682V19.63
	L32.088,19.631L32.088,19.631z"/>
</svg>
