<?xml version="1.0" encoding="utf-8"?>
<!-- Generator: Adobe Illustrator 15.0.0, SVG Export Plug-In . SVG Version: 6.00 Build 0)  -->
<!DOCTYPE svg PUBLIC "-//W3C//DTD SVG 1.1//EN" "http://www.w3.org/Graphics/SVG/1.1/DTD/svg11.dtd" [
	<!ENTITY ns_extend "http://ns.adobe.com/Extensibility/1.0/">
	<!ENTITY ns_ai "http://ns.adobe.com/AdobeIllustrator/10.0/">
	<!ENTITY ns_graphs "http://ns.adobe.com/Graphs/1.0/">
	<!ENTITY ns_vars "http://ns.adobe.com/Variables/1.0/">
	<!ENTITY ns_imrep "http://ns.adobe.com/ImageReplacement/1.0/">
	<!ENTITY ns_sfw "http://ns.adobe.com/SaveForWeb/1.0/">
	<!ENTITY ns_custom "http://ns.adobe.com/GenericCustomNamespace/1.0/">
	<!ENTITY ns_adobe_xpath "http://ns.adobe.com/XPath/1.0/">
]>
<svg version="1.1" id="Layer_1" xmlns:x="&ns_extend;" xmlns:i="&ns_ai;" xmlns:graph="&ns_graphs;"
	 xmlns="http://www.w3.org/2000/svg" xmlns:xlink="http://www.w3.org/1999/xlink" x="0px" y="0px" width="60px" height="60px"
	 viewBox="0 0 60 60" enable-background="new 0 0 60 60" xml:space="preserve">
<metadata>
	<sfw  xmlns="&ns_sfw;">
		<slices></slices>
		<sliceSourceBounds  height="49.59" width="50.05" y="282.781" x="370.476" bottomLeftOrigin="true"></sliceSourceBounds>
	</sfw>
</metadata>
<path fill="#D3D3D3" d="M52.268,12.392h-2.446V4.129H33.75v8.263H7.73c-1.517,0-2.755,1.239-2.755,2.756v35.815
	c0,1.516,1.238,2.756,2.755,2.756h44.541c1.515,0,2.754-1.24,2.754-2.756V15.148C55.023,13.631,53.786,12.392,52.268,12.392z
	 M36.505,6.884h10.562v5.508H36.505V6.884z M30.414,50.525c-9.636,0-17.47-7.836-17.47-17.471c0-9.633,7.835-17.473,17.47-17.473
	c9.632,0,17.475,7.839,17.475,17.473C47.889,42.691,40.048,50.525,30.414,50.525z"/>
<path fill="#D3D3D3" d="M30.414,22.705c-5.704,0-10.344,4.646-10.344,10.349c0,5.705,4.64,10.347,10.344,10.347
	c5.707,0,10.349-4.642,10.349-10.347C40.762,27.351,36.12,22.705,30.414,22.705z M30.414,40.613c-4.174,0-7.561-3.385-7.561-7.562
	s3.387-7.562,7.561-7.562c4.18,0,7.565,3.386,7.565,7.562C37.975,37.229,34.591,40.613,30.414,40.613z"/>
<path fill="#D3D3D3" d="M30.414,17.421c-8.621,0-15.634,7.013-15.634,15.635c0,8.619,7.014,15.636,15.634,15.636
	c8.623,0,15.634-7.017,15.634-15.636C46.048,24.435,39.036,17.421,30.414,17.421z M30.414,45.057
	c-6.615,0-11.998-5.386-11.998-12.003c0-6.617,5.383-11.998,11.998-11.998c6.619,0,12.003,5.381,12.003,11.998
	C42.417,39.671,37.03,45.057,30.414,45.057z"/>
</svg>
