<?xml version="1.0" encoding="utf-8"?>
<!-- Generator: Adobe Illustrator 15.0.0, SVG Export Plug-In . SVG Version: 6.00 Build 0)  -->
<!DOCTYPE svg PUBLIC "-//W3C//DTD SVG 1.1//EN" "http://www.w3.org/Graphics/SVG/1.1/DTD/svg11.dtd" [
	<!ENTITY ns_extend "http://ns.adobe.com/Extensibility/1.0/">
	<!ENTITY ns_ai "http://ns.adobe.com/AdobeIllustrator/10.0/">
	<!ENTITY ns_graphs "http://ns.adobe.com/Graphs/1.0/">
	<!ENTITY ns_vars "http://ns.adobe.com/Variables/1.0/">
	<!ENTITY ns_imrep "http://ns.adobe.com/ImageReplacement/1.0/">
	<!ENTITY ns_sfw "http://ns.adobe.com/SaveForWeb/1.0/">
	<!ENTITY ns_custom "http://ns.adobe.com/GenericCustomNamespace/1.0/">
	<!ENTITY ns_adobe_xpath "http://ns.adobe.com/XPath/1.0/">
]>
<svg version="1.1" id="Layer_1" xmlns:x="&ns_extend;" xmlns:i="&ns_ai;" xmlns:graph="&ns_graphs;"
	 xmlns="http://www.w3.org/2000/svg" xmlns:xlink="http://www.w3.org/1999/xlink" x="0px" y="0px" width="60px" height="60px"
	 viewBox="0 0 60 60" enable-background="new 0 0 60 60" xml:space="preserve">
<metadata>
	<sfw  xmlns="&ns_sfw;">
		<slices></slices>
		<sliceSourceBounds  height="48.96" width="58.872" y="372.406" x="276.063" bottomLeftOrigin="true"></sliceSourceBounds>
	</sfw>
</metadata>
<path id="picture-multi-2-icon" fill="#2E3849" d="M47.052,21.297L42.125,5.134L0.563,17.802l9.562,31.372l5.861-1.785v6.705h43.449
	V21.297H47.052z M12.931,43.909L5.828,20.606l33.491-10.208l3.322,10.898H15.986v21.681L12.931,43.909z M55.217,49.876H20.205
	V25.515h35.012V49.876z M25.777,32.062c0-1.777,1.442-3.22,3.22-3.22c1.778,0,3.219,1.442,3.219,3.22c0,1.778-1.44,3.22-3.219,3.22
	C27.219,35.282,25.777,33.841,25.777,32.062z M42.108,32.166l-5.337,7.583l-2.901-2.99l-8.184,9.299h25.583L42.108,32.166z"/>
</svg>
