<?xml version="1.0" encoding="UTF-8" standalone="no"?>
<!-- Generator: Adobe Illustrator 15.0.0, SVG Export Plug-In . SVG Version: 6.00 Build 0)  -->

<svg
   xmlns:ns="&amp;ns_sfw;"
   xmlns:dc="http://purl.org/dc/elements/1.1/"
   xmlns:cc="http://creativecommons.org/ns#"
   xmlns:rdf="http://www.w3.org/1999/02/22-rdf-syntax-ns#"
   xmlns:svg="http://www.w3.org/2000/svg"
   xmlns="http://www.w3.org/2000/svg"
   xmlns:sodipodi="http://sodipodi.sourceforge.net/DTD/sodipodi-0.dtd"
   xmlns:inkscape="http://www.inkscape.org/namespaces/inkscape"
   version="1.1"
   id="Layer_1"
   x="0px"
   y="0px"
   width="60px"
   height="60px"
   viewBox="0 0 60 60"
   enable-background="new 0 0 60 60"
   xml:space="preserve"
   inkscape:version="0.48.3.1 r9886"
   sodipodi:docname="ic_launcher.svg"
   inkscape:export-filename="/home/n8fr8/dev/repos/iWitness/art/original/ic_launcher.png"
   inkscape:export-xdpi="929.67029"
   inkscape:export-ydpi="929.67029"><defs
   id="defs13" /><sodipodi:namedview
   pagecolor="#ffffff"
   bordercolor="#666666"
   borderopacity="1"
   objecttolerance="10"
   gridtolerance="10"
   guidetolerance="10"
   inkscape:pageopacity="0"
   inkscape:pageshadow="2"
   inkscape:window-width="1461"
   inkscape:window-height="820"
   id="namedview11"
   showgrid="false"
   inkscape:zoom="3.9333333"
   inkscape:cx="-19.194915"
   inkscape:cy="30"
   inkscape:window-x="140"
   inkscape:window-y="24"
   inkscape:window-maximized="0"
   inkscape:current-layer="Layer_1" />
<metadata
   id="metadata3">
	<ns:sfw>
		<ns:slices />
		<ns:sliceSourceBounds
   height="49.59"
   width="50.05"
   y="281.704"
   x="370.477"
   bottomLeftOrigin="true" />
	</ns:sfw>
<rdf:RDF><cc:Work
     rdf:about=""><dc:format>image/svg+xml</dc:format><dc:type
       rdf:resource="http://purl.org/dc/dcmitype/StillImage" /><dc:title></dc:title></cc:Work></rdf:RDF></metadata>
<path
   fill="#2E3849"
   d="M52.269,13.469h-2.447V5.206h-16.07v8.263H7.731c-1.517,0-2.755,1.239-2.755,2.756V52.04  c0,1.516,1.238,2.756,2.755,2.756h44.541c1.515,0,2.754-1.24,2.754-2.756V16.225C55.024,14.708,53.787,13.469,52.269,13.469z   M36.507,7.961h10.562v5.508H36.507V7.961z M30.415,51.604c-9.636,0-17.47-7.836-17.47-17.471c0-9.633,7.835-17.473,17.47-17.473  c9.632,0,17.475,7.839,17.475,17.473C47.89,43.768,40.049,51.604,30.415,51.604z"
   id="path5"
   style="fill:#f78f20;fill-opacity:1"
   inkscape:export-filename="/home/n8fr8/dev/repos/iWitness/art/original/ic_launcher512.png"
   inkscape:export-xdpi="929.2196"
   inkscape:export-ydpi="929.2196" />
<path
   fill="#2E3849"
   d="M30.414,23.782c-5.704,0-10.344,4.646-10.344,10.349c0,5.705,4.64,10.346,10.344,10.346  c5.707,0,10.349-4.641,10.349-10.346C40.763,28.428,36.121,23.782,30.414,23.782z M30.414,41.691c-4.174,0-7.561-3.386-7.561-7.562  c0-4.177,3.387-7.562,7.561-7.562c4.18,0,7.565,3.386,7.565,7.562C37.976,38.306,34.592,41.691,30.414,41.691z"
   id="path7"
   style="fill:#f78f20;fill-opacity:1"
   inkscape:export-filename="/home/n8fr8/dev/repos/iWitness/art/original/ic_launcher512.png"
   inkscape:export-xdpi="929.2196"
   inkscape:export-ydpi="929.2196" />
<path
   fill="#2E3849"
   d="M30.415,18.498c-8.621,0-15.634,7.013-15.634,15.635c0,8.619,7.014,15.635,15.634,15.635  c8.622,0,15.634-7.016,15.634-15.635C46.049,25.512,39.037,18.498,30.415,18.498z M30.414,46.134  c-6.615,0-11.998-5.386-11.998-12.003s5.383-11.998,11.998-11.998c6.618,0,12.003,5.381,12.003,11.998S37.03,46.134,30.414,46.134z"
   id="path9"
   style="fill:#f78f20;fill-opacity:1"
   inkscape:export-filename="/home/n8fr8/dev/repos/iWitness/art/original/ic_launcher512.png"
   inkscape:export-xdpi="929.2196"
   inkscape:export-ydpi="929.2196" />
<path
   style="fill:#f78f20;fill-opacity:1"
   d="M 6.6088185,54.272685 C 5.1281304,53.50051 5.2032815,54.568937 5.1945263,34.165642 5.1865432,15.561912 5.193039,15.31442 5.7064795,14.661687 5.9925008,14.29807 6.6503398,13.882856 7.1683439,13.738989 7.7565948,13.575611 12.953968,13.47688 21.012712,13.475994 l 12.902542,-0.0014 0,-4.0677963 0,-4.0677966 7.881356,0 7.881356,0 0,4.0329889 0,4.032989 1.683104,0.135103 c 2.004242,0.160882 2.88074,0.710195 3.344571,2.096087 0.253487,0.757409 0.308992,4.914852 0.254237,19.043513 -0.06504,16.7815 -0.102132,18.121788 -0.518527,18.73454 -0.246666,0.362985 -0.738277,0.79201 -1.092473,0.95339 -0.471369,0.214772 -6.723013,0.293003 -23.322705,0.291857 C 10.263346,54.65818 7.2524881,54.608357 6.6088185,54.272685 l 0,0 z M 34.730799,51.120694 c 7.95462,-2.03445 13.167506,-8.785525 13.167506,-17.052897 0,-4.597007 -1.480584,-8.431926 -4.524864,-11.72003 -3.705977,-4.002797 -7.661639,-5.710803 -13.144627,-5.675684 -2.58431,0.01655 -3.361873,0.122473 -5.084746,0.692647 -2.82855,0.936092 -5.026227,2.287937 -7.114746,4.376456 -2.086459,2.086459 -3.438146,4.282575 -4.379055,7.114746 -0.585378,1.762012 -0.676296,2.458721 -0.680128,5.211865 -0.005,3.568563 0.305453,4.944645 1.835246,8.135593 1.230415,2.566482 4.67994,6.068222 7.34263,7.453772 3.72572,1.938707 8.53687,2.498303 12.582784,1.463532 l 0,0 z m 12.404794,-40.442728 0,-2.7966101 -5.338983,0 -5.338983,0 0,2.7966101 0,2.79661 5.338983,0 5.338983,0 0,-2.79661 z"
   id="path2990"
   inkscape:connector-curvature="0"
   inkscape:export-filename="/home/n8fr8/dev/repos/iWitness/art/original/ic_launcher512.png"
   inkscape:export-xdpi="929.2196"
   inkscape:export-ydpi="929.2196" /><path
   style="fill:#f78f20;fill-opacity:1"
   d="m 27.392427,43.865438 c -1.661426,-0.542123 -3.774155,-2.025135 -4.882378,-3.427141 -3.239888,-4.098767 -2.917923,-9.771343 0.763559,-13.452825 5.423422,-5.423422 14.421661,-3.161715 16.858216,4.237312 0.696052,2.113686 0.478433,5.060973 -0.529195,7.167047 -1.006803,2.10435 -2.8173,3.915745 -4.924663,4.927107 -1.429704,0.686141 -1.961087,0.799842 -3.940678,0.843198 -1.374345,0.0301 -2.71015,-0.08759 -3.344861,-0.294698 z m 6.141471,-2.76915 c 1.855655,-0.866614 2.796522,-1.768601 3.671688,-3.519963 1.416526,-2.834719 0.964745,-6.210475 -1.145229,-8.557273 -1.538113,-1.710752 -3.231883,-2.434678 -5.704425,-2.438099 -2.313456,-0.0032 -3.776501,0.585379 -5.338983,2.147861 -1.562481,1.562481 -2.151061,3.025526 -2.14786,5.338983 0.0033,2.350286 0.679545,4.02742 2.242624,5.561466 2.102511,2.063458 5.775217,2.703192 8.422185,1.467025 l 0,0 z"
   id="path2992"
   inkscape:connector-curvature="0"
   inkscape:export-filename="/home/n8fr8/dev/repos/iWitness/art/original/ic_launcher512.png"
   inkscape:export-xdpi="929.2196"
   inkscape:export-ydpi="929.2196" /><path
   style="fill:#f78f20;fill-opacity:1"
   d="M 26.923729,49.220308 C 21.311933,47.839777 16.678173,43.207359 15.327182,37.627119 c -0.479428,-1.980268 -0.414733,-5.647848 0.132299,-7.5 1.55642,-5.269765 5.686009,-9.399354 10.955773,-10.955774 1.852152,-0.547031 5.519733,-0.611727 7.5,-0.132299 3.165072,0.766273 6.31393,2.758691 8.483276,5.367734 1.194912,1.437109 2.824726,4.789579 3.188735,6.559124 0.698009,3.393209 0.035,7.635835 -1.672647,10.70328 -1.194987,2.146561 -3.810737,4.762312 -5.957298,5.957298 -3.14528,1.750973 -7.712794,2.410762 -11.033591,1.593826 z m 5.564506,-3.197173 c 3.391554,-0.555415 6.910219,-3.077959 8.528457,-6.114081 4.343176,-8.148637 -1.434577,-17.79041 -10.66076,-17.79041 -10.258956,0 -15.726487,11.926758 -9.110655,19.873793 2.652351,3.186043 6.963294,4.731551 11.242958,4.030698 z"
   id="path2994"
   inkscape:connector-curvature="0"
   inkscape:export-filename="/home/n8fr8/dev/repos/iWitness/art/original/ic_launcher512.png"
   inkscape:export-xdpi="929.2196"
   inkscape:export-ydpi="929.2196" /></svg>