<?xml version="1.0" encoding="utf-8"?>
<!-- Generator: Adobe Illustrator 15.0.0, SVG Export Plug-In  -->
<!DOCTYPE svg PUBLIC "-//W3C//DTD SVG 1.1//EN" "http://www.w3.org/Graphics/SVG/1.1/DTD/svg11.dtd" [
	<!ENTITY ns_flows "http://ns.adobe.com/Flows/1.0/">
]>
<svg version="1.1"
	 xmlns="http://www.w3.org/2000/svg" xmlns:xlink="http://www.w3.org/1999/xlink" xmlns:a="http://ns.adobe.com/AdobeSVGViewerExtensions/3.0/"
	 x="0px" y="0px" width="175px" height="175px" viewBox="-0.876 -0.875 175 175"
	 overflow="visible" enable-background="new -0.876 -0.875 175 175" xml:space="preserve">
<defs>
</defs>
<path id="danger-3-icon_2_" fill="#FFFFFF" d="M99.788,63.419l19.798-34.295c19.694,11.393,32.93,32.668,32.93,57.043H112.94
	C112.94,76.458,107.639,67.971,99.788,63.419z M73.521,108.907l-19.797,34.3c9.694,5.598,20.935,8.813,32.942,8.813
	c11.99,0,23.239-3.216,32.919-8.813l-19.798-34.3C91.84,113.511,81.831,113.716,73.521,108.907z M73.529,63.419L53.725,29.124
	C34.05,40.517,20.813,61.792,20.813,86.167h39.571C60.385,76.458,65.678,67.971,73.529,63.419z M86.658,104.275
	c10.006,0,18.106-8.119,18.106-18.112c0-10.008-8.101-18.095-18.106-18.095c-9.993,0-18.112,8.087-18.112,18.095
	C68.546,96.156,76.661,104.275,86.658,104.275z"/>
<path fill="#FFFFFF" d="M86.662,173.33C38.879,173.33,0,134.452,0,86.663C0,38.879,38.879,0,86.662,0
	c47.785,0,86.664,38.879,86.664,86.663C173.326,134.452,134.447,173.33,86.662,173.33z M86.662,9.613
	c-42.486,0-77.052,34.562-77.052,77.05c0,42.486,34.565,77.057,77.052,77.057c42.488,0,77.053-34.57,77.053-77.057
	C163.715,44.176,129.15,9.613,86.662,9.613z"/>
</svg>
