<?xml version="1.0" encoding="utf-8"?>
<!-- Generator: Adobe Illustrator 15.0.0, SVG Export Plug-In  -->
<!DOCTYPE svg PUBLIC "-//W3C//DTD SVG 1.1//EN" "http://www.w3.org/Graphics/SVG/1.1/DTD/svg11.dtd" [
	<!ENTITY ns_flows "http://ns.adobe.com/Flows/1.0/">
]>
<svg version="1.1"
	 xmlns="http://www.w3.org/2000/svg" xmlns:xlink="http://www.w3.org/1999/xlink" xmlns:a="http://ns.adobe.com/AdobeSVGViewerExtensions/3.0/"
	 x="0px" y="0px" width="150px" height="150px" viewBox="-2.482 -1.752 150 150"
	 overflow="visible" enable-background="new -2.482 -1.752 150 150" xml:space="preserve">
<defs>
</defs>
<path id="key-6-icon_3_" fill="#FFFFFF" d="M129.388,14.653C111.744-2.989,85.131-4.981,69.944,10.206
	c-15.187,15.186-13.197,41.803,4.446,59.447c17.643,17.64,44.256,19.631,59.441,4.442C149.02,58.909,147.031,32.297,129.388,14.653z
	 M100.012,65.226c-3.011-3.011-4.271-7.188-3.867-11.477c0.309-3.286-2.455-6.097-5.785-5.784
	c-4.289,0.405-8.466-0.856-11.477-3.867c-5.901-5.901-5.08-16.29,1.833-23.203c6.915-6.914,17.302-7.733,23.204-1.832
	c3.008,3.009,4.271,7.187,3.866,11.473c-0.31,3.322,2.476,6.101,5.784,5.788c4.289-0.406,8.467,0.856,11.478,3.867
	c5.901,5.901,5.082,16.29-1.831,23.203C116.304,70.308,105.913,71.127,100.012,65.226z M40.104,137.249l3.688,3.688l-7.309,7.312
	l-12.868-12.869l-8.171,8.171L0,128.107l59.503-59.501c4.021,6.082,9.271,11.409,15.348,15.535l-32.818,32.817L54.9,129.827
	l-7.505,7.506l-3.69-3.686L40.104,137.249z"/>
</svg>
