<?xml version="1.0" encoding="utf-8"?>
<!-- Generator: Adobe Illustrator 15.0.0, SVG Export Plug-In . SVG Version: 6.00 Build 0)  -->
<!DOCTYPE svg PUBLIC "-//W3C//DTD SVG 1.1//EN" "http://www.w3.org/Graphics/SVG/1.1/DTD/svg11.dtd" [
	<!ENTITY ns_extend "http://ns.adobe.com/Extensibility/1.0/">
	<!ENTITY ns_ai "http://ns.adobe.com/AdobeIllustrator/10.0/">
	<!ENTITY ns_graphs "http://ns.adobe.com/Graphs/1.0/">
	<!ENTITY ns_vars "http://ns.adobe.com/Variables/1.0/">
	<!ENTITY ns_imrep "http://ns.adobe.com/ImageReplacement/1.0/">
	<!ENTITY ns_sfw "http://ns.adobe.com/SaveForWeb/1.0/">
	<!ENTITY ns_custom "http://ns.adobe.com/GenericCustomNamespace/1.0/">
	<!ENTITY ns_adobe_xpath "http://ns.adobe.com/XPath/1.0/">
]>
<svg version="1.1" id="Layer_1" xmlns:x="&ns_extend;" xmlns:i="&ns_ai;" xmlns:graph="&ns_graphs;"
	 xmlns="http://www.w3.org/2000/svg" xmlns:xlink="http://www.w3.org/1999/xlink" x="0px" y="0px" width="48px" height="48px"
	 viewBox="0 0 48 48" enable-background="new 0 0 48 48" xml:space="preserve">
<metadata>
	<sfw  xmlns="&ns_sfw;">
		<slices></slices>
		<sliceSourceBounds  x="9.005" y="9.482" width="30.18" height="30.037" bottomLeftOrigin="true"></sliceSourceBounds>
	</sfw>
</metadata>
<path fill="#231F20" d="M34.101,12.072c-2.903-0.697-7.05,0.432-9.257,1.898c-2.775-0.9-6.127-3.096-9.73-1.662
	C19.15,7.818,29.752,8.005,34.101,12.072z"/>
<path fill="#231F20" d="M21.757,15.632c-1.556,2.082-3.896,3.381-5.221,5.695c-1.613-1.814-4.021-5.011-2.611-8.306
	C17.305,12.268,19.529,14.468,21.757,15.632z"/>
<path fill="#231F20" d="M35.522,13.259c0.926,3.582-1.334,5.906-2.609,8.068c-1.816-1.904-3.476-3.961-5.696-5.459
	C29.336,14.559,32.309,11.927,35.522,13.259z"/>
<path fill="#231F20" d="M36.473,14.682c4.441,3.822,4.046,14.557,0.236,18.748c0.241-3.217-0.367-7.289-2.138-9.254
	C35.885,21.816,37.392,18.492,36.473,14.682z"/>
<path fill="#231F20" d="M30.775,23.938c-1.855,2.338-3.793,4.592-6.406,6.172c-2.042-1.914-4.068-3.846-5.934-5.934
	c1.612-2.424,3.861-4.207,5.934-6.17C27.057,19.43,28.672,21.93,30.775,23.938z"/>
<path fill="#231F20" d="M16.062,26.785c2.034,1.764,3.932,3.664,5.695,5.697c-2.279,0.994-5.725,4.149-8.307,1.897
	C13.107,30.635,15.084,29.211,16.062,26.785z"/>
<path fill="#231F20" d="M32.676,26.785c1.715,1.846,3.192,3.926,3.084,7.597c-2.582,2.252-6.025-0.904-8.307-1.898
	C28.951,30.34,31.311,29.062,32.676,26.785z"/>
<path fill="#231F20" d="M12.74,14.445c-0.756,2.865,0.186,7.57,1.897,9.492c-1.371,2.326-2.796,5.668-1.897,9.492
	C8.355,29.545,8.5,18.38,12.74,14.445z"/>
<path fill="#231F20" d="M33.625,35.805C30.861,39.997,19.136,40.1,15.35,36.04c2.118,0.48,6.872-0.524,9.255-1.896
	C27.111,35.111,30.497,36.941,33.625,35.805z"/>
</svg>
