<?xml version="1.0" encoding="utf-8"?>
<!-- Generator: Adobe Illustrator 15.0.0, SVG Export Plug-In . SVG Version: 6.00 Build 0)  -->
<!DOCTYPE svg PUBLIC "-//W3C//DTD SVG 1.1//EN" "http://www.w3.org/Graphics/SVG/1.1/DTD/svg11.dtd" [
	<!ENTITY ns_extend "http://ns.adobe.com/Extensibility/1.0/">
	<!ENTITY ns_ai "http://ns.adobe.com/AdobeIllustrator/10.0/">
	<!ENTITY ns_graphs "http://ns.adobe.com/Graphs/1.0/">
	<!ENTITY ns_vars "http://ns.adobe.com/Variables/1.0/">
	<!ENTITY ns_imrep "http://ns.adobe.com/ImageReplacement/1.0/">
	<!ENTITY ns_sfw "http://ns.adobe.com/SaveForWeb/1.0/">
	<!ENTITY ns_custom "http://ns.adobe.com/GenericCustomNamespace/1.0/">
	<!ENTITY ns_adobe_xpath "http://ns.adobe.com/XPath/1.0/">
]>
<svg version="1.1" id="Layer_1" xmlns:x="&ns_extend;" xmlns:i="&ns_ai;" xmlns:graph="&ns_graphs;"
	 xmlns="http://www.w3.org/2000/svg" xmlns:xlink="http://www.w3.org/1999/xlink" x="0px" y="0px" width="48px" height="48px"
	 viewBox="0 0 48 48" enable-background="new 0 0 48 48" xml:space="preserve">
<metadata>
	<sfw  xmlns="&ns_sfw;">
		<slices></slices>
		<sliceSourceBounds  x="6.639" y="2.806" width="35.723" height="43.693" bottomLeftOrigin="true"></sliceSourceBounds>
	</sfw>
</metadata>
<polygon fill="#020D26" points="40.833,12.9 40.833,43.666 9.168,43.666 9.168,4.03 32.126,4.03 32.126,12.9 42.862,12.9 
	32.134,2.014 32.134,2.001 7.14,2.001 7.14,45.695 42.862,45.695 42.862,12.9 "/>
<path id="microphone-3-icon_1_" fill="#020D26" d="M21.398,24.974v-6.464c0-1.989,1.612-3.603,3.603-3.603
	c1.992,0,3.604,1.613,3.604,3.603v6.464c0,1.989-1.611,3.603-3.604,3.603C23.011,28.576,21.398,26.963,21.398,24.974z
	 M30.194,23.119v1.854c0,2.861-2.33,5.191-5.193,5.191c-2.862,0-5.191-2.33-5.191-5.191v-1.854h-2.12v1.854
	c0,3.627,2.652,6.645,6.119,7.215v2.42h-3.047v2.119h8.478v-2.119h-3.047v-2.42c3.469-0.57,6.12-3.588,6.12-7.215v-1.854H30.194z"/>
</svg>
